<svg width="22" height="30" viewBox="0 0 22 30" fill="none" xmlns="http://www.w3.org/2000/svg">
<path d="M5.69889 30C5.21078 29.7651 5.06766 29.3643 5.07068 28.8194C5.0865 25.5861 5.08122 22.3529 5.07068 19.1196C5.0672 18.9291 5.01522 18.743 4.92003 18.5802C3.3633 16.0108 1.80054 13.4461 0.231759 10.8861C0.069497 10.6344 -0.0112517 10.3355 0.00126306 10.0328C0.105212 7.13221 1.26523 4.7554 3.35928 2.88198C5.81037 0.689932 8.6961 -0.197065 11.9004 0.0362314C14.8381 0.250739 17.3744 1.41879 19.4142 3.64998C21.0435 5.43259 21.9165 7.56436 21.9986 10.032C22.0117 10.3346 21.9326 10.6337 21.7726 10.8869C20.2043 13.4479 18.6416 16.0124 17.0844 18.5802C16.9889 18.7429 16.9369 18.9291 16.9337 19.1196C16.9247 22.3529 16.9194 25.5861 16.9337 28.8194C16.9337 29.3674 16.7928 29.7659 16.3055 30H5.69889ZM15.2095 28.2299V19.4664H13.5388C13.5388 20.3205 13.5388 21.1582 13.5388 21.9959C13.5388 22.7263 13.0115 23.1185 12.3426 22.8938C11.9585 22.7654 11.5796 22.6198 11.1931 22.5024C11.0699 22.4669 10.9397 22.4669 10.8165 22.5024C10.412 22.6261 10.0151 22.7788 9.61131 22.9087C8.98836 23.1083 8.46862 22.7122 8.46259 22.0342C8.45732 21.4682 8.46259 20.9014 8.46259 20.3354V19.4742H6.78659V28.2299H15.2095ZM13.5056 9.01268C13.4303 7.50721 13.2382 6.02053 12.8089 4.57534C12.5483 3.69539 12.2447 2.83188 11.633 2.13669C11.1811 1.62312 10.7932 1.59415 10.3879 2.13669C10.0184 2.62658 9.71433 3.16617 9.484 3.7408C8.74355 5.62831 8.5349 7.62621 8.47539 9.64524C8.48283 9.7028 8.50217 9.758 8.53207 9.80705C8.56198 9.85611 8.60175 9.89786 8.64864 9.92943C9.97889 10.7679 11.3679 10.8689 12.7991 10.2426C13.5689 9.90438 13.5636 9.89263 13.5071 9.04243L13.5056 9.01268ZM13.7203 2.07484C13.984 2.817 14.2423 3.45583 14.4389 4.11423C14.9662 5.88901 15.159 7.72015 15.2298 9.57009C15.2323 9.63296 15.247 9.69467 15.2728 9.75156C15.2987 9.80844 15.3353 9.85935 15.3805 9.90124C16.7288 10.8736 18.792 10.8783 20.1448 9.91533C20.1851 9.88304 20.2179 9.84168 20.2406 9.79436C20.2633 9.74704 20.2753 9.69499 20.2759 9.64211C20.1953 9.11367 20.1381 8.57349 19.9859 8.0654C19.247 5.60874 17.6561 3.91616 15.4664 2.80448C14.9187 2.52343 14.3297 2.32614 13.7203 2.07484ZM8.28633 2.17974L8.23887 2.0858C7.63627 2.34102 7.0073 2.54926 6.43106 2.86006C3.79692 4.27394 2.09004 6.40884 1.72245 9.55599C1.6976 9.7705 1.76238 9.87384 1.92885 9.97092C3.46549 10.8728 5.00163 10.8728 6.53727 9.97092C6.71353 9.86758 6.7768 9.7478 6.78434 9.53564C6.87397 6.99521 7.19787 4.50253 8.28633 2.17974ZM12.0089 17.6807C12.3931 15.7932 12.775 13.9119 13.1644 11.9939C11.7046 12.5341 10.2907 12.5278 8.83771 11.9939C9.22941 13.9205 9.61206 15.8002 9.99321 17.6768L12.0089 17.6807ZM7.04571 11.6948C5.84129 12.33 4.47152 12.5434 3.14083 12.3031C3.14444 12.3339 3.15153 12.3641 3.16193 12.3931C4.20996 14.1155 5.25949 15.8357 6.31054 17.5538C6.34594 17.6118 6.4175 17.6838 6.47324 17.6846C7.06003 17.694 7.64757 17.6909 8.26448 17.6909C7.85622 15.6796 7.45549 13.7084 7.04571 11.6948ZM13.7399 17.6916C14.3056 17.6916 14.8397 17.6822 15.373 17.6971C15.5583 17.7026 15.6554 17.6345 15.7496 17.4756C16.7379 15.8414 17.7309 14.2105 18.7287 12.5826C18.7777 12.5043 18.8221 12.4182 18.8907 12.2968C17.5512 12.5467 16.17 12.3347 14.9572 11.6932C14.5481 13.6998 14.1459 15.6796 13.7399 17.6916ZM10.1672 20.8928C10.7404 20.5624 11.282 20.5703 11.8349 20.8779V19.4688H10.1642L10.1672 20.8928Z" fill="white"/>
</svg>
