<svg width="23" height="30" viewBox="0 0 23 30" fill="none" xmlns="http://www.w3.org/2000/svg">
<path d="M8.73592 17.5509H6.28242C5.56327 17.5509 5.23682 17.8777 5.23682 18.5989C5.23682 21.9679 5.23682 25.337 5.23682 28.706C5.23682 29.4256 5.56405 29.7532 6.2832 29.7532H16.4276C17.1631 29.7532 17.4841 29.4295 17.4841 28.6858V21.3383C17.4841 20.389 17.4841 19.4403 17.4841 18.4917C17.4841 17.9103 17.1218 17.5602 16.5359 17.5517C16.2538 17.5517 15.9718 17.5517 15.6905 17.5517H13.985V17.8979C13.985 19.2044 13.985 20.5116 13.985 21.8189C13.985 22.5424 13.4396 22.9313 12.7485 22.7093C12.3418 22.5788 11.9405 22.4345 11.5322 22.311C11.4237 22.2804 11.3088 22.2804 11.2003 22.311C10.7547 22.4445 10.3168 22.6037 9.87034 22.7349C9.74057 22.7783 9.60224 22.7901 9.46695 22.7693C9.33166 22.7485 9.20333 22.6957 9.09271 22.6154C8.98209 22.5351 8.8924 22.4295 8.83114 22.3075C8.76987 22.1855 8.73883 22.0507 8.74059 21.9143C8.72813 21.2157 8.74059 20.5209 8.74059 19.8238L8.73592 17.5509ZM8.79513 11.7583C8.60814 11.6713 8.49672 11.6465 8.42348 11.5805C8.01833 11.2172 7.62799 11.2956 7.25478 11.6155C7.21818 11.6487 7.18936 11.6896 7.17038 11.7352C7.15139 11.7809 7.1427 11.8301 7.14492 11.8794C7.2953 12.5594 7.46359 13.2348 7.62643 13.9109C7.77758 14.5392 7.92925 15.1674 8.08144 15.7957H9.87346C9.55791 14.476 9.24625 13.1773 8.92135 11.8212C10.5646 12.4655 12.1555 12.4546 13.7941 11.8282L12.8396 15.8112C13.385 15.8112 13.886 15.8027 14.3893 15.8151C14.5794 15.8198 14.6535 15.7631 14.6971 15.5714C14.941 14.5063 15.2028 13.4459 15.4599 12.384C15.6235 11.7078 15.6211 11.714 15.0345 11.3608C14.8934 11.2762 14.8007 11.2925 14.669 11.374C14.4602 11.5052 14.2358 11.6131 14.0083 11.7358C13.9585 10.8407 13.9304 9.98993 13.8603 9.14223C13.7325 7.51903 13.4863 5.91447 12.9892 4.35803C12.7329 3.55458 12.4384 2.76355 11.8836 2.10682C11.4886 1.64105 11.1949 1.62087 10.8349 2.11846C10.5096 2.5605 10.2386 3.03978 10.0277 3.54604C9.20574 5.59076 8.93304 7.74881 8.80059 9.92783C8.76475 10.5131 8.79513 11.1031 8.79513 11.7583ZM10.5022 17.5656V20.7204C11.0842 20.3897 11.6507 20.4185 12.2163 20.7002V17.5656H10.5022Z" fill="white"/>
<path d="M12.1762 0.00231524C12.7995 0.0977975 13.4299 0.157571 14.0415 0.294973C17.4899 1.08678 20.1577 2.93044 21.79 6.11706C22.4094 7.34055 22.7298 8.69258 22.725 10.0629C22.731 10.2649 22.682 10.4647 22.5832 10.6412C21.2953 12.6914 19.9925 14.7314 18.7249 16.7249L17.2539 15.7848L19.4674 12.2978C18.7436 12.2683 18.0081 12.2745 17.2819 12.1938C16.8355 12.1441 16.4046 11.9609 15.966 11.839C15.7735 11.7862 15.7322 11.669 15.7268 11.4765C15.6979 9.36269 15.5374 7.25819 15.0255 5.20183C14.7909 4.26513 14.4889 3.34648 14.1217 2.45303C13.6683 1.34605 12.9881 0.403652 11.7695 0.000762939L12.1762 0.00231524Z" fill="white"/>
<path d="M10.9515 0.00232874C9.5413 0.480516 8.90553 1.64571 8.39364 2.90251C7.74617 4.49155 7.40881 6.16288 7.23116 7.85827C7.10417 9.07004 7.06053 10.2904 6.99742 11.5068C6.9873 11.6931 6.92419 11.7769 6.75901 11.8414C5.6984 12.2653 4.54339 12.3993 3.4134 12.2295C3.35808 12.221 3.3012 12.2178 3.19835 12.207L5.47265 15.7872L4.00164 16.7187C3.99697 16.7125 3.94944 16.6473 3.90581 16.579C2.67166 14.6468 1.43439 12.7108 0.217379 10.7654C0.0759278 10.5378 0.000674911 10.2755 0 10.0078C0.0716806 7.09752 1.30038 4.72909 3.48586 2.84351C5.4337 1.16131 7.72825 0.27325 10.2885 0.0489053C10.3742 0.0371782 10.4593 0.0208528 10.5433 0L10.9515 0.00232874Z" fill="white"/>
<path d="M8.73592 17.5509V19.8231C8.73592 20.5217 8.72657 21.2204 8.73592 21.9136C8.73415 22.05 8.7652 22.1848 8.82646 22.3067C8.88772 22.4287 8.97742 22.5343 9.08804 22.6146C9.19866 22.695 9.32698 22.7477 9.46228 22.7685C9.59757 22.7893 9.73589 22.7775 9.86566 22.7341C10.3121 22.6029 10.75 22.4438 11.1957 22.3103C11.3042 22.2796 11.4191 22.2796 11.5276 22.3103C11.9358 22.4337 12.3371 22.5781 12.7438 22.7085C13.4364 22.9305 13.9787 22.5416 13.9803 21.8181C13.9842 20.5108 13.9803 19.2036 13.9803 17.8971V17.5509H15.6843C15.9655 17.5509 16.2476 17.5509 16.5296 17.5509C17.1155 17.5555 17.4755 17.9095 17.4778 18.491C17.4817 19.4396 17.4778 20.3882 17.4778 21.3376V28.6851C17.4778 29.4287 17.1568 29.7524 16.4213 29.7524H6.2832C5.56405 29.7524 5.23682 29.4248 5.23682 28.7052C5.23682 25.3362 5.23682 21.9671 5.23682 18.5981C5.23682 17.8769 5.56327 17.5509 6.28242 17.5501L8.73592 17.5509Z" fill="white"/>
<path d="M8.79469 11.7583C8.79469 11.1031 8.7643 10.5163 8.80014 9.92785C8.93259 7.74884 9.20529 5.59078 10.0273 3.54606C10.2389 3.0383 10.5109 2.5577 10.8376 2.1146C11.1975 1.61701 11.4913 1.63486 11.8863 2.10296C12.441 2.76047 12.7356 3.5515 12.9919 4.35417C13.489 5.91061 13.7352 7.51518 13.863 9.13838C13.93 9.98607 13.9611 10.8369 14.011 11.7319C14.2385 11.6093 14.4629 11.499 14.6717 11.3702C14.801 11.2887 14.8961 11.2724 15.0371 11.357C15.6238 11.7102 15.6262 11.704 15.4625 12.3801C15.2054 13.4421 14.9436 14.5025 14.6998 15.5675C14.6561 15.7593 14.5821 15.8159 14.392 15.8113C13.8887 15.7996 13.3846 15.8113 12.8392 15.8113L13.7921 11.8313C12.1559 12.4577 10.5625 12.4686 8.91935 11.8243C9.24425 13.1805 9.5559 14.4807 9.87145 15.7989H8.07944C7.92777 15.1701 7.7761 14.5418 7.62442 13.914C7.46158 13.2379 7.29329 12.5625 7.14292 11.8825C7.1407 11.8332 7.14939 11.784 7.16837 11.7384C7.18736 11.6928 7.21617 11.6519 7.25278 11.6186C7.62754 11.2988 8.01789 11.2204 8.42148 11.5837C8.49628 11.6465 8.60769 11.6714 8.79469 11.7583Z" fill="white"/>
<path d="M10.502 17.5656H12.2161V20.7018C11.6481 20.42 11.0816 20.3913 10.502 20.722V17.5656Z" fill="white"/>
</svg>
