<svg width="20" height="21" viewBox="0 0 20 21" fill="none" xmlns="http://www.w3.org/2000/svg">
<path d="M9.60831 4.40311L15.8833 15.2448H3.33331L9.60831 4.40311ZM1.89164 14.4114C1.24997 15.5198 2.04997 16.9114 3.33331 16.9114H15.8833C17.1666 16.9114 17.9666 15.5198 17.325 14.4114L11.05 3.56978C10.4083 2.46144 8.80831 2.46144 8.16664 3.56978L1.89164 14.4114Z" fill="#D90000"/>
<path d="M8.77499 8.57821V11.0699C8.77499 11.5282 9.14999 11.9032 9.60833 11.9032C10.0667 11.9032 10.4417 11.5282 10.4417 11.0699V8.57821C10.4417 8.11987 10.0667 7.74487 9.60833 7.74487C9.14999 7.74487 8.77499 8.11987 8.77499 8.57821Z" fill="#D90000"/>
<path d="M9.60833 14.4114C10.0686 14.4114 10.4417 14.0383 10.4417 13.5781C10.4417 13.1178 10.0686 12.7448 9.60833 12.7448C9.14809 12.7448 8.77499 13.1178 8.77499 13.5781C8.77499 14.0383 9.14809 14.4114 9.60833 14.4114Z" fill="#D90000"/>
</svg>
