<svg width="55" height="55" viewBox="0 0 55 55" fill="none" xmlns="http://www.w3.org/2000/svg">
<circle cx="27.5" cy="27.5" r="27.5" fill="#FDE9E9"/>
<path d="M27.4125 18.25L36.825 34.5125H18L27.4125 18.25ZM15.8375 33.2625C14.875 34.925 16.075 37.0125 18 37.0125H36.825C38.75 37.0125 39.95 34.925 38.9875 33.2625L29.575 17C28.6125 15.3375 26.2125 15.3375 25.25 17L15.8375 33.2625Z" fill="#D90000"/>
<path d="M26.1626 24.5125V28.25C26.1626 28.9375 26.7251 29.5 27.4126 29.5C28.1001 29.5 28.6626 28.9375 28.6626 28.25V24.5125C28.6626 23.825 28.1001 23.2625 27.4126 23.2625C26.7251 23.2625 26.1626 23.825 26.1626 24.5125Z" fill="#D90000"/>
<path d="M27.4126 33.2625C28.103 33.2625 28.6626 32.7029 28.6626 32.0125C28.6626 31.3222 28.103 30.7625 27.4126 30.7625C26.7222 30.7625 26.1626 31.3222 26.1626 32.0125C26.1626 32.7029 26.7222 33.2625 27.4126 33.2625Z" fill="#D90000"/>
</svg>
