<svg width="16" height="28" viewBox="0 0 16 28" fill="none" xmlns="http://www.w3.org/2000/svg">
<path fill-rule="evenodd" clip-rule="evenodd" d="M1.29196 1.29196C1.38485 1.19883 1.4952 1.12494 1.61669 1.07453C1.73818 1.02412 1.86842 0.998169 1.99996 0.998169C2.13149 0.998169 2.26173 1.02412 2.38322 1.07453C2.50471 1.12494 2.61507 1.19883 2.70796 1.29196L14.708 13.292C14.8011 13.3848 14.875 13.4952 14.9254 13.6167C14.9758 13.7382 15.0017 13.8684 15.0017 14C15.0017 14.1315 14.9758 14.2617 14.9254 14.3832C14.875 14.5047 14.8011 14.6151 14.708 14.708L2.70796 26.708C2.52018 26.8957 2.26551 27.0012 1.99996 27.0012C1.7344 27.0012 1.47973 26.8957 1.29196 26.708C1.10418 26.5202 0.998693 26.2655 0.998693 26C0.998693 25.7344 1.10418 25.4797 1.29196 25.292L12.586 14L1.29196 2.70796C1.19883 2.61507 1.12494 2.50471 1.07453 2.38322C1.02412 2.26173 0.998169 2.13149 0.998169 1.99996C0.998169 1.86842 1.02412 1.73818 1.07453 1.61669C1.12494 1.4952 1.19883 1.38485 1.29196 1.29196Z" fill="#1866ED"/>
</svg>
