<svg width="20" height="20" viewBox="0 0 20 20" fill="none" xmlns="http://www.w3.org/2000/svg">
<path d="M14.3333 0H3.33333C2.44928 0 1.60143 0.351189 0.976311 0.976311C0.351189 1.60143 0 2.44928 0 3.33333C0 4.21739 0.351189 5.06523 0.976311 5.69036C1.60143 6.31548 2.44928 6.66667 3.33333 6.66667H17.3333V18H14V20H17.6667C18.1087 20 18.5326 19.8244 18.8452 19.5118C19.1577 19.1993 19.3333 18.7754 19.3333 18.3333V6.33333C19.3333 5.89131 19.1577 5.46738 18.8452 5.15482C18.5326 4.84226 18.1087 4.66667 17.6667 4.66667H16V1.66667C16 1.22464 15.8244 0.800716 15.5118 0.488155C15.1993 0.175595 14.7754 0 14.3333 0ZM14 4.66667H3.33333C2.97971 4.66667 2.64057 4.52619 2.39052 4.27614C2.14048 4.02609 2 3.68696 2 3.33333C2 2.97971 2.14048 2.64057 2.39052 2.39052C2.64057 2.14048 2.97971 2 3.33333 2H14V4.66667Z" fill="black"/>
<path d="M14.6667 13.3333C15.2189 13.3333 15.6667 12.8856 15.6667 12.3333C15.6667 11.7811 15.2189 11.3333 14.6667 11.3333C14.1144 11.3333 13.6667 11.7811 13.6667 12.3333C13.6667 12.8856 14.1144 13.3333 14.6667 13.3333Z" fill="black"/>
<path d="M0 15.3333H1C1.97246 15.3333 2.90509 15.7196 3.59272 16.4073C4.28036 17.0949 4.66667 18.0275 4.66667 19V20H6.66667V19C6.66667 17.4971 6.06964 16.0558 5.00694 14.9931C3.94423 13.9304 2.50289 13.3333 1 13.3333H0V15.3333Z" fill="black"/>
<path d="M0 10.6667H1C3.21014 10.6667 5.32975 11.5446 6.89256 13.1074C8.45536 14.6702 9.33333 16.7899 9.33333 19V20H11.3333V19C11.3333 16.2594 10.2446 13.6311 8.30677 11.6932C6.36889 9.75535 3.74057 8.66666 1 8.66666H0V10.6667Z" fill="black"/>
<path d="M1 20C1.55228 20 2 19.5523 2 19C2 18.4477 1.55228 18 1 18C0.447715 18 0 18.4477 0 19C0 19.5523 0.447715 20 1 20Z" fill="black"/>
</svg>
