<svg width="13" height="13" viewBox="0 0 13 13" fill="none" xmlns="http://www.w3.org/2000/svg">
<path d="M7.4158 6.5L11.7158 2.21C11.9041 2.0217 12.0099 1.7663 12.0099 1.5C12.0099 1.2337 11.9041 0.978306 11.7158 0.790002C11.5275 0.601699 11.2721 0.495911 11.0058 0.495911C10.7395 0.495911 10.4841 0.601699 10.2958 0.790002L6.0058 5.09L1.7158 0.790002C1.52749 0.601699 1.2721 0.495911 1.0058 0.495911C0.739497 0.495911 0.484102 0.601699 0.295798 0.790002C0.107495 0.978306 0.0017066 1.2337 0.0017066 1.5C0.0017066 1.7663 0.107495 2.0217 0.295798 2.21L4.5958 6.5L0.295798 10.79C0.20207 10.883 0.127676 10.9936 0.0769072 11.1154C0.0261385 11.2373 0 11.368 0 11.5C0 11.632 0.0261385 11.7627 0.0769072 11.8846C0.127676 12.0064 0.20207 12.117 0.295798 12.21C0.388761 12.3037 0.499362 12.3781 0.621222 12.4289C0.743081 12.4797 0.873786 12.5058 1.0058 12.5058C1.13781 12.5058 1.26852 12.4797 1.39038 12.4289C1.51223 12.3781 1.62284 12.3037 1.7158 12.21L6.0058 7.91L10.2958 12.21C10.3888 12.3037 10.4994 12.3781 10.6212 12.4289C10.7431 12.4797 10.8738 12.5058 11.0058 12.5058C11.1378 12.5058 11.2685 12.4797 11.3904 12.4289C11.5122 12.3781 11.6228 12.3037 11.7158 12.21C11.8095 12.117 11.8839 12.0064 11.9347 11.8846C11.9855 11.7627 12.0116 11.632 12.0116 11.5C12.0116 11.368 11.9855 11.2373 11.9347 11.1154C11.8839 10.9936 11.8095 10.883 11.7158 10.79L7.4158 6.5Z" fill="#1866ED"/>
</svg>
