<svg width="27" height="27" viewBox="0 0 27 27" fill="none" xmlns="http://www.w3.org/2000/svg">
<path d="M18.9688 0.375C17.0077 0.375 15.2303 0.7425 13.8413 1.43484C12.4533 2.12719 11.3125 3.25484 11.3125 4.75V9.125C11.3125 9.26609 11.3595 9.40281 11.3814 9.53516C10.2866 9.25696 9.16084 9.11913 8.03125 9.125C6.07016 9.125 4.29281 9.4925 2.90375 10.1848C1.51578 10.8772 0.375 12.0048 0.375 13.5V22.25C0.375 23.7452 1.51578 24.8728 2.90484 25.5652C4.29281 26.2575 6.07016 26.625 8.03125 26.625C9.99234 26.625 11.7697 26.2575 13.1587 25.5652C14.5456 24.8728 15.6875 23.7452 15.6875 22.25V21.8059C16.7575 22.0952 17.8604 22.2445 18.9688 22.25C20.9298 22.25 22.7072 21.8825 24.0963 21.1902C25.4831 20.4978 26.625 19.3702 26.625 17.875V4.75C26.625 3.25484 25.4842 2.12719 24.0952 1.43484C22.7083 0.7425 20.9309 0.375 18.9688 0.375ZM18.9688 2.5625C20.6345 2.5625 22.1177 2.92125 23.1042 3.41672C24.0919 3.91219 24.4375 4.43391 24.4375 4.75C24.4375 5.06719 24.0919 5.58781 23.1042 6.08328C22.1187 6.57875 20.6345 6.9375 18.9688 6.9375C17.303 6.9375 15.8198 6.57875 14.8333 6.08328C13.8456 5.58781 13.5 5.06609 13.5 4.75C13.5 4.43281 13.8456 3.91219 14.8333 3.41672C15.8187 2.92125 17.303 2.5625 18.9688 2.5625ZM13.5 7.86062C13.6148 7.92406 13.722 8.00609 13.8423 8.06516C15.2303 8.7575 17.0077 9.125 18.9688 9.125C20.9298 9.125 22.7072 8.7575 24.0963 8.06516C24.2155 8.00609 24.3227 7.92406 24.4375 7.86062V9.125C24.4375 9.44219 24.0919 9.96281 23.1042 10.4583C22.1177 10.9537 20.6345 11.3125 18.9688 11.3125C17.303 11.3125 15.8198 10.9537 14.8333 10.4583C13.8456 9.96281 13.5 9.44109 13.5 9.125V7.86062ZM8.03125 11.3125C9.69703 11.3125 11.1802 11.6713 12.1667 12.1667C13.1544 12.6622 13.5 13.1839 13.5 13.5C13.5 13.8172 13.1544 14.3378 12.1667 14.8333C11.1802 15.3287 9.69703 15.6875 8.03125 15.6875C6.36547 15.6875 4.88234 15.3287 3.89578 14.8333C2.90812 14.3378 2.5625 13.8161 2.5625 13.5C2.5625 13.1828 2.90812 12.6622 3.89578 12.1667C4.88125 11.6713 6.36547 11.3125 8.03125 11.3125ZM24.4375 12.2356V13.5C24.4375 13.8172 24.0919 14.3378 23.1042 14.8333C22.1177 15.3287 20.6345 15.6875 18.9688 15.6875C17.8546 15.6935 16.7467 15.5203 15.6875 15.1745V13.5C15.6875 13.3589 15.6405 13.2222 15.6186 13.0898C16.6358 13.3545 17.7634 13.5 18.9688 13.5C20.9298 13.5 22.7072 13.1325 24.0963 12.4402C24.2155 12.3811 24.3227 12.2991 24.4375 12.2356ZM2.5625 16.6106C2.67734 16.6741 2.78453 16.7561 2.90484 16.8152C4.29281 17.5075 6.07016 17.875 8.03125 17.875C9.99234 17.875 11.7697 17.5075 13.1587 16.8152C13.278 16.7561 13.3852 16.6741 13.5 16.6106V17.875C13.5 18.1922 13.1544 18.7128 12.1667 19.2083C11.1802 19.7038 9.69703 20.0625 8.03125 20.0625C6.36547 20.0625 4.88234 19.7038 3.89578 19.2083C2.90812 18.7128 2.5625 18.1911 2.5625 17.875V16.6106ZM24.4375 16.6106V17.875C24.4375 18.1922 24.0919 18.7128 23.1042 19.2083C22.1177 19.7038 20.6345 20.0625 18.9688 20.0625C17.7252 20.0625 16.6019 19.8875 15.6875 19.5834V17.4648C16.6916 17.7295 17.7853 17.875 18.9688 17.875C20.9298 17.875 22.7072 17.5075 24.0963 16.8152C24.2155 16.7561 24.3227 16.6741 24.4375 16.6106ZM2.5625 20.9856C2.67734 21.0491 2.78453 21.1311 2.90484 21.1902C4.29281 21.8825 6.07016 22.25 8.03125 22.25C9.99234 22.25 11.7697 21.8825 13.1587 21.1902C13.278 21.1311 13.3852 21.0491 13.5 20.9856V22.25C13.5 22.5672 13.1544 23.0878 12.1667 23.5833C11.1802 24.0788 9.69703 24.4375 8.03125 24.4375C6.36547 24.4375 4.88234 24.0788 3.89578 23.5833C2.90812 23.0878 2.5625 22.5661 2.5625 22.25V20.9856Z" fill="#0A2148"/>
</svg>
