<svg width="14" height="14" viewBox="0 0 14 14" fill="none" xmlns="http://www.w3.org/2000/svg">
<path d="M6.516 3C6.38339 3 6.25621 3.05268 6.16245 3.14645C6.06868 3.24021 6.016 3.36739 6.016 3.5C6.016 3.63261 6.06868 3.75979 6.16245 3.85355C6.25621 3.94732 6.38339 4 6.516 4H9.293L5.146 8.146C5.09951 8.19249 5.06263 8.24768 5.03748 8.30842C5.01232 8.36916 4.99937 8.43426 4.99937 8.5C4.99937 8.56574 5.01232 8.63084 5.03748 8.69158C5.06263 8.75232 5.09951 8.80751 5.146 8.854C5.19249 8.90049 5.24768 8.93736 5.30841 8.96252C5.36915 8.98768 5.43425 9.00063 5.5 9.00063C5.56574 9.00063 5.63084 8.98768 5.69158 8.96252C5.75232 8.93736 5.80751 8.90049 5.854 8.854L10 4.707V7.484C10 7.61661 10.0527 7.74378 10.1464 7.83755C10.2402 7.93132 10.3674 7.984 10.5 7.984C10.6326 7.984 10.7598 7.93132 10.8536 7.83755C10.9473 7.74378 11 7.61661 11 7.484V3.5C11 3.36739 10.9473 3.24021 10.8536 3.14645C10.7598 3.05268 10.6326 3 10.5 3H6.516Z" fill="#1866ED"/>
<path d="M9.766 14C10.3616 14.0001 10.9376 13.7877 11.3904 13.4009C11.8432 13.014 12.1431 12.4783 12.236 11.89C12.7469 11.7325 13.1938 11.4154 13.5113 10.9853C13.8287 10.5551 14 10.0346 14 9.5V2.5C14 1.83696 13.7366 1.20107 13.2678 0.732233C12.7989 0.263392 12.163 3.28417e-09 11.5 3.28417e-09H4.5C3.9595 -2.76868e-05 3.43353 0.175045 3.00087 0.498999C2.56821 0.822954 2.25214 1.27835 2.1 1.797C1.51374 1.89203 0.980456 2.19266 0.595666 2.64507C0.210875 3.09747 -0.000286548 3.67209 2.91846e-07 4.266V10.5C2.91846e-07 11.4283 0.368749 12.3185 1.02513 12.9749C1.6815 13.6313 2.57174 14 3.5 14H9.766ZM1 4.266C0.999631 3.9555 1.09562 3.65254 1.27474 3.39892C1.45385 3.14529 1.70726 2.9535 2 2.85V9.5C2 10.163 2.26339 10.7989 2.73223 11.2678C3.20107 11.7366 3.83696 12 4.5 12H11.18C11.0766 12.2924 10.8851 12.5456 10.6319 12.7247C10.3787 12.9038 10.0762 13 9.766 13H3.5C2.83696 13 2.20107 12.7366 1.73223 12.2678C1.26339 11.7989 1 11.163 1 10.5V4.266ZM4.5 1H11.5C11.8978 1 12.2794 1.15804 12.5607 1.43934C12.842 1.72064 13 2.10218 13 2.5V9.5C13 9.89782 12.842 10.2794 12.5607 10.5607C12.2794 10.842 11.8978 11 11.5 11H4.5C4.10218 11 3.72064 10.842 3.43934 10.5607C3.15804 10.2794 3 9.89782 3 9.5V2.5C3 2.10218 3.15804 1.72064 3.43934 1.43934C3.72064 1.15804 4.10218 1 4.5 1Z" fill="#1866ED"/>
</svg>
