<svg width="40" height="40" viewBox="0 0 40 40" fill="none" xmlns="http://www.w3.org/2000/svg">
<path d="M27.2492 7.11443V10.1973H25.3857C22.4129 10.1973 22.058 12.0719 22.058 13.525V17.5297H27.0717V20.9462H22.0691V33.5474H18.4863V20.9462H14.1159V17.5297H18.4863V12.9704C18.4863 9.36538 20.7047 7.11443 24.1655 7.11443H27.2603H27.2492ZM27.2603 4.89597H24.1655C19.4402 4.89597 16.2678 8.14523 16.2678 12.9704V15.3112H14.1159C13.5275 15.3112 12.9633 15.5451 12.5472 15.9612C12.1312 16.3772 11.8975 16.9413 11.8975 17.5297V20.9462C11.8975 21.5346 12.1312 22.0987 12.5472 22.5147C12.9633 22.9308 13.5275 23.1647 14.1159 23.1647H16.2678V33.5474C16.2678 34.1358 16.5015 34.6999 16.9176 35.1159C17.3336 35.532 17.8979 35.7659 18.4863 35.7659H22.0691C22.6575 35.7659 23.2217 35.532 23.6378 35.1159C24.0538 34.6999 24.2876 34.1358 24.2876 33.5474V23.1647H27.0717C27.6601 23.1647 28.2244 22.9308 28.6404 22.5147C29.0564 22.0987 29.2902 21.5346 29.2902 20.9462V17.5297C29.2902 16.9413 29.0564 16.3772 28.6404 15.9612C28.2244 15.5451 27.6601 15.3112 27.0717 15.3112H24.2764V13.4806C24.2764 12.571 24.2764 12.3713 25.3857 12.3713H27.2492C27.8376 12.3713 28.4018 12.1385 28.8179 11.7225C29.2339 11.3065 29.4676 10.7413 29.4676 10.1529V7.07002C29.4676 6.48165 29.2339 5.91754 28.8179 5.5015C28.4018 5.08546 27.8376 4.85156 27.2492 4.85156L27.2603 4.89597Z" fill="#1C1C8E"/>
</svg>
