<svg width="12" height="24" viewBox="0 0 12 24" fill="none" xmlns="http://www.w3.org/2000/svg">
<path d="M9.93103 1.65517V3.79531L6.62069 7.10566V0H4.96552V7.10566L1.65517 3.79531V1.65517H0V14.8966C0.00231839 16.2882 0.505267 17.6326 1.41695 18.6841C2.32864 19.7356 3.58821 20.424 4.96552 20.6234V24H6.62069V20.6234C7.998 20.424 9.25756 19.7356 10.1693 18.6841C11.0809 17.6326 11.5839 16.2882 11.5862 14.8966V1.65517H9.93103ZM4.96552 18.9509C4.03158 18.759 3.19237 18.2509 2.58936 17.5124C1.98635 16.7739 1.65641 15.85 1.65517 14.8966V12.7564L4.96552 16.0668V18.9509ZM4.96552 13.7263L1.65517 10.416V6.13572L4.96552 9.44607V13.7263ZM6.62069 9.44607L9.93103 6.13572V10.416L6.62069 13.7263V9.44607ZM6.62069 18.9509V16.0668L9.93103 12.7564V14.8966C9.9298 15.85 9.59986 16.7739 8.99685 17.5124C8.39384 18.2509 7.55463 18.759 6.62069 18.9509Z" fill="#1866ED"/>
</svg>
