<svg id="Layer_1" data-name="Layer 1" xmlns="http://www.w3.org/2000/svg" viewBox="0 0 34.39 35.02"><defs><style>.cls-1{fill:#fff;fill-rule:evenodd;}</style></defs><g id="Icon_Social_Icons_Grid" data-name="Icon Social Icons Grid"><g id="Group_494" data-name="Group 494"><g id="Icon_Social_Github" data-name="Icon Social Github"><path id="Path_695" data-name="Path 695" class="cls-1" d="M17,3a14.37,14.37,0,0,0-4.54,28c.72.13,1-.32,1-.7s0-1.24,0-2.44c-4,.87-4.83-1.92-4.83-1.92A3.78,3.78,0,0,0,7,23.83c-1.3-.89.1-.88.1-.88a3,3,0,0,1,2.2,1.48,3.06,3.06,0,0,0,4.15,1.21h0a3.1,3.1,0,0,1,.91-1.92c-3.19-.36-6.54-1.6-6.54-7.1a5.53,5.53,0,0,1,1.48-3.85A5.25,5.25,0,0,1,9.48,9s1.21-.39,3.95,1.47a13.7,13.7,0,0,1,7.19,0C23.36,8.57,24.57,9,24.57,9a5.15,5.15,0,0,1,.14,3.8,5.56,5.56,0,0,1,1.48,3.85c0,5.52-3.36,6.73-6.56,7.09a3.45,3.45,0,0,1,1,2.66c0,1.92,0,3.47,0,3.94s.26.83,1,.69A14.36,14.36,0,0,0,17,3Z"/></g></g></g></svg>