<svg width="14" height="13" viewBox="0 0 14 13" fill="none" xmlns="http://www.w3.org/2000/svg">
<path d="M7 1.467L12.5302 11.0218H1.46984L7 1.467ZM0.1993 10.2873C-0.366201 11.2641 0.338839 12.4906 1.46984 12.4906H12.5302C13.6612 12.4906 14.3662 11.2641 13.8007 10.2873L8.27054 0.732581C7.70504 -0.244194 6.29496 -0.244194 5.72946 0.732581L0.1993 10.2873Z" fill="#8490A3"/>
<path d="M6.26599 5.14653V7.34243C6.26599 7.74636 6.59648 8.07685 7.00041 8.07685C7.40434 8.07685 7.73482 7.74636 7.73482 7.34243V5.14653C7.73482 4.7426 7.40434 4.41211 7.00041 4.41211C6.59648 4.41211 6.26599 4.7426 6.26599 5.14653Z" fill="#8490A3"/>
<path d="M7.00041 10.2872C7.40601 10.2872 7.73482 9.95838 7.73482 9.55278C7.73482 9.14717 7.40601 8.81836 7.00041 8.81836C6.5948 8.81836 6.26599 9.14717 6.26599 9.55278C6.26599 9.95838 6.5948 10.2872 7.00041 10.2872Z" fill="#8490A3"/>
</svg>
