<svg width="55" height="56" viewBox="0 0 55 56" fill="none" xmlns="http://www.w3.org/2000/svg">
<circle cx="27.5" cy="28" r="27.5" fill="#E9FDF9"/>
<path d="M34.9822 21.0101C35.3297 20.6793 35.7921 20.4964 36.2718 20.5001C36.7516 20.5037 37.2112 20.6935 37.5536 21.0296C37.896 21.3656 38.0945 21.8215 38.1072 22.3011C38.1199 22.7807 37.9457 23.2465 37.6215 23.6001L27.7796 35.9087C27.6103 36.091 27.4061 36.2373 27.179 36.3388C26.952 36.4404 26.7068 36.4951 26.4581 36.4997C26.2094 36.5043 25.9623 36.4587 25.7317 36.3656C25.501 36.2726 25.2915 36.134 25.1156 35.9581L18.5888 29.4313C18.4071 29.2619 18.2613 29.0577 18.1602 28.8307C18.059 28.6038 18.0047 28.3588 18.0003 28.1104C17.9959 27.862 18.0416 27.6153 18.1346 27.385C18.2277 27.1546 18.3662 26.9453 18.5419 26.7697C18.7175 26.594 18.9268 26.4555 19.1571 26.3625C19.3875 26.2694 19.6342 26.2237 19.8826 26.2281C20.131 26.2325 20.376 26.2869 20.6029 26.388C20.8299 26.4891 21.0341 26.6349 21.2035 26.8166L26.3687 31.9793L34.9354 21.0644C34.9508 21.0454 34.9672 21.0273 34.9847 21.0101H34.9822Z" fill="#17C7A7"/>
</svg>
