<svg width="24" height="19" viewBox="0 0 24 19" fill="none" xmlns="http://www.w3.org/2000/svg">
<path d="M4.5 7C4.76522 7 5.01957 7.10536 5.20711 7.29289C5.39464 7.48043 5.5 7.73478 5.5 8C7.07114 7.99769 8.59698 8.52627 9.83 9.5H12C13.333 9.5 14.53 10.08 15.354 11H18.5C19.4453 10.9997 20.3712 11.2674 21.1705 11.772C21.9698 12.2767 22.6097 12.9975 23.016 13.851C20.651 16.972 16.822 19 12.5 19C9.71 19 7.35 18.397 5.44 17.342C5.37004 17.5351 5.24224 17.7018 5.07402 17.8196C4.90579 17.9374 4.70534 18.0003 4.5 18H1.5C1.23478 18 0.98043 17.8946 0.792893 17.7071C0.605357 17.5196 0.5 17.2652 0.5 17V8C0.5 7.73478 0.605357 7.48043 0.792893 7.29289C0.98043 7.10536 1.23478 7 1.5 7H4.5ZM5.501 10L5.5 15.022L5.545 15.054C7.34 16.314 9.678 17 12.5 17C15.504 17 18.299 15.844 20.335 13.87L20.468 13.737L20.348 13.637C19.8758 13.2672 19.3034 13.0477 18.705 13.007L18.5 13H16.389C16.461 13.322 16.5 13.656 16.5 14V15H7.5V13L14.29 12.999L14.256 12.921C14.0644 12.5205 13.7696 12.1783 13.4019 11.9295C13.0343 11.6806 12.607 11.5341 12.164 11.505L12 11.5H9.07C8.60531 11.0247 8.05027 10.6472 7.43752 10.3896C6.82477 10.132 6.16569 9.99952 5.501 10ZM3.5 9H2.5V16H3.5V9ZM17.5 3C18.2956 3 19.0587 3.31607 19.6213 3.87868C20.1839 4.44129 20.5 5.20435 20.5 6C20.5 6.79565 20.1839 7.55871 19.6213 8.12132C19.0587 8.68393 18.2956 9 17.5 9C16.7044 9 15.9413 8.68393 15.3787 8.12132C14.8161 7.55871 14.5 6.79565 14.5 6C14.5 5.20435 14.8161 4.44129 15.3787 3.87868C15.9413 3.31607 16.7044 3 17.5 3ZM17.5 5C17.2348 5 16.9804 5.10536 16.7929 5.29289C16.6054 5.48043 16.5 5.73478 16.5 6C16.5 6.26522 16.6054 6.51957 16.7929 6.70711C16.9804 6.89464 17.2348 7 17.5 7C17.7652 7 18.0196 6.89464 18.2071 6.70711C18.3946 6.51957 18.5 6.26522 18.5 6C18.5 5.73478 18.3946 5.48043 18.2071 5.29289C18.0196 5.10536 17.7652 5 17.5 5ZM10.5 0C11.2956 0 12.0587 0.316071 12.6213 0.87868C13.1839 1.44129 13.5 2.20435 13.5 3C13.5 3.79565 13.1839 4.55871 12.6213 5.12132C12.0587 5.68393 11.2956 6 10.5 6C9.70435 6 8.94129 5.68393 8.37868 5.12132C7.81607 4.55871 7.5 3.79565 7.5 3C7.5 2.20435 7.81607 1.44129 8.37868 0.87868C8.94129 0.316071 9.70435 0 10.5 0ZM10.5 2C10.2348 2 9.98043 2.10536 9.79289 2.29289C9.60536 2.48043 9.5 2.73478 9.5 3C9.5 3.26522 9.60536 3.51957 9.79289 3.70711C9.98043 3.89464 10.2348 4 10.5 4C10.7652 4 11.0196 3.89464 11.2071 3.70711C11.3946 3.51957 11.5 3.26522 11.5 3C11.5 2.73478 11.3946 2.48043 11.2071 2.29289C11.0196 2.10536 10.7652 2 10.5 2Z" fill="#0A2148"/>
</svg>
