<svg width="50" height="50" viewBox="0 0 50 50" fill="none" xmlns="http://www.w3.org/2000/svg">
<rect width="50" height="50" rx="25" fill="#C4C4C4"/>
<path d="M24.5504 36H23.7804C23.3604 36 22.9988 35.8833 22.6954 35.65C22.3921 35.3933 22.2404 35.1133 22.2404 34.81C22.2404 34.6 22.3338 34.1917 22.5204 33.585C22.6838 33.095 22.7654 32.6167 22.7654 32.15L22.8354 30.995V25.08C22.7888 24.4967 22.7071 24.0417 22.5904 23.715L22.4504 23.4C22.2404 22.8633 22.1354 22.5833 22.1354 22.56V22.245C22.1354 21.6617 22.7421 21.37 23.9554 21.37H24.4804C24.8538 21.37 25.1338 21.405 25.3204 21.475C25.5071 21.545 25.6354 21.6967 25.7054 21.93C25.7988 22.1633 25.8454 22.5133 25.8454 22.98C25.8688 23.4467 25.8804 24.0767 25.8804 24.87V28.3L25.9854 30.435C25.9854 31.625 26.2304 32.64 26.7204 33.48C26.9071 33.8533 27.0004 34.2267 27.0004 34.6C27.0004 35.02 26.7671 35.3583 26.3004 35.615C25.8338 35.8717 25.2504 36 24.5504 36ZM24.3054 14.895H24.8304C25.2504 14.895 25.6121 15.0233 25.9154 15.28C26.2421 15.5367 26.4054 15.9217 26.4054 16.435V16.785C26.4054 17.205 26.2654 17.5783 25.9854 17.905C25.7288 18.2317 25.3788 18.395 24.9354 18.395L24.6554 18.43H24.1654C24.0721 18.4067 23.9204 18.395 23.7104 18.395C23.5238 18.395 23.3021 18.2783 23.0454 18.045C22.8121 17.7883 22.6954 17.5083 22.6954 17.205L22.6254 16.715V16.645L22.6954 16.155C22.6954 15.9217 22.8238 15.6533 23.0804 15.35C23.3371 15.0467 23.7454 14.895 24.3054 14.895Z" fill="white"/>
</svg>
