<svg width="18" height="18" viewBox="0 0 18 18" fill="none" xmlns="http://www.w3.org/2000/svg">
<path d="M8.75 0C3.91797 0 0 3.91797 0 8.75C0 13.582 3.91797 17.5 8.75 17.5C13.582 17.5 17.5 13.582 17.5 8.75C17.5 3.91797 13.582 0 8.75 0ZM8.75 16.0156C4.73828 16.0156 1.48438 12.7617 1.48438 8.75C1.48438 4.73828 4.73828 1.48438 8.75 1.48438C12.7617 1.48438 16.0156 4.73828 16.0156 8.75C16.0156 12.7617 12.7617 16.0156 8.75 16.0156Z" fill="#1866ED"/>
<path d="M8.75 1.48438C4.73828 1.48438 1.48438 4.73828 1.48438 8.75C1.48438 12.7617 4.73828 16.0156 8.75 16.0156C12.7617 16.0156 16.0156 12.7617 16.0156 8.75C16.0156 4.73828 12.7617 1.48438 8.75 1.48438ZM9.375 12.9688C9.375 13.0547 9.30469 13.125 9.21875 13.125H8.28125C8.19531 13.125 8.125 13.0547 8.125 12.9688V7.65625C8.125 7.57031 8.19531 7.5 8.28125 7.5H9.21875C9.30469 7.5 9.375 7.57031 9.375 7.65625V12.9688ZM8.75 6.25C8.50467 6.24499 8.27108 6.14402 8.09936 5.96875C7.92763 5.79348 7.83144 5.55788 7.83144 5.3125C7.83144 5.06712 7.92763 4.83152 8.09936 4.65625C8.27108 4.48098 8.50467 4.38001 8.75 4.375C8.99533 4.38001 9.22892 4.48098 9.40065 4.65625C9.57237 4.83152 9.66856 5.06712 9.66856 5.3125C9.66856 5.55788 9.57237 5.79348 9.40065 5.96875C9.22892 6.14402 8.99533 6.24499 8.75 6.25Z" fill="#1866ED" fill-opacity="0.1"/>
<path d="M7.8125 5.3125C7.8125 5.56114 7.91127 5.7996 8.08709 5.97541C8.2629 6.15123 8.50136 6.25 8.75 6.25C8.99864 6.25 9.2371 6.15123 9.41291 5.97541C9.58873 5.7996 9.6875 5.56114 9.6875 5.3125C9.6875 5.06386 9.58873 4.8254 9.41291 4.64959C9.2371 4.47377 8.99864 4.375 8.75 4.375C8.50136 4.375 8.2629 4.47377 8.08709 4.64959C7.91127 4.8254 7.8125 5.06386 7.8125 5.3125ZM9.21875 7.5H8.28125C8.19531 7.5 8.125 7.57031 8.125 7.65625V12.9688C8.125 13.0547 8.19531 13.125 8.28125 13.125H9.21875C9.30469 13.125 9.375 13.0547 9.375 12.9688V7.65625C9.375 7.57031 9.30469 7.5 9.21875 7.5Z" fill="#1866ED"/>
</svg>
