<svg width="40" height="40" viewBox="0 0 40 40" fill="none" xmlns="http://www.w3.org/2000/svg">
<path d="M26.7792 6.01758H13.6016C9.12344 6.01758 5.49316 9.64738 5.49316 14.1256V27.3041C5.49316 31.7823 9.12344 35.4121 13.6016 35.4121H26.7792C31.2574 35.4121 34.8877 31.7823 34.8877 27.3041V14.1256C34.8877 9.64738 31.2574 6.01758 26.7792 6.01758Z" stroke="#1C1C8E" stroke-width="2.21846" stroke-miterlimit="10"/>
<path d="M20.2011 25.6758C19.2178 25.6779 18.256 25.3875 17.4373 24.8427C16.6186 24.298 15.98 23.5235 15.6021 22.6156C15.2243 21.7078 15.1244 20.7076 15.3148 19.7429C15.5053 18.7782 15.9777 17.8923 16.6723 17.1962C17.3668 16.5001 18.2522 16.0251 19.2165 15.8324C20.1807 15.6398 21.1805 15.7383 22.0892 16.1141C22.9978 16.4899 23.7746 17.1262 24.3211 17.9437C24.8677 18.7611 25.1594 19.7226 25.1594 20.7059C25.1565 22.021 24.6335 23.2813 23.7046 24.2123C22.7757 25.1433 21.5163 25.6699 20.2011 25.6758Z" stroke="#1C1C8E" stroke-width="2.21846" stroke-miterlimit="10"/>
<path d="M28.0879 10.9199C27.5798 10.9228 27.0935 11.1261 26.7342 11.4854C26.375 11.8446 26.1719 12.3314 26.1689 12.8394C26.1733 13.3471 26.3763 13.8326 26.7346 14.1924C26.9126 14.3693 27.1238 14.5099 27.356 14.6051C27.5882 14.7002 27.8369 14.7481 28.0879 14.747C28.3388 14.7484 28.5876 14.7004 28.8197 14.6051C29.0519 14.5097 29.2628 14.3687 29.4403 14.1913C29.6177 14.0138 29.7582 13.8027 29.8536 13.5706C29.9489 13.3384 29.9972 13.0904 29.9958 12.8394C29.9969 12.5884 29.9485 12.3394 29.8533 12.1071C29.7581 11.8749 29.6181 11.6645 29.4411 11.4865C29.0814 11.1282 28.5956 10.9243 28.0879 10.9199Z" fill="#5B46F9"/>
</svg>
