<svg width="32" height="32" viewBox="0 0 32 32" fill="none" xmlns="http://www.w3.org/2000/svg">
<path d="M6.63799 17.7235H0.0324707C0.890611 25.7334 7.65838 31.9748 15.8918 32L6.63799 17.7235Z" fill="white"/>
<path d="M4.64766 14.6515H8.30738L10.2977 17.7235L15.8936 26.359L21.4914 17.7235L23.4817 14.6515H27.1414H31.8756C31.1923 6.44687 24.3218 0 15.9387 0C15.9243 0 15.9099 0.00180282 15.8972 0.00180282L23.8296 12.2393H7.96304L15.8954 0.00180282C7.53397 0.0234366 0.683267 6.46129 0 14.6515H4.64766ZM20.6422 14.6515L15.8954 21.9727L11.1504 14.6515H20.6422Z" fill="white"/>
<path d="M25.1527 17.7235L15.9006 31.9982C15.9133 31.9982 15.9259 31.9982 15.9385 31.9982C24.1918 31.9982 30.9848 25.7478 31.8447 17.7217H25.1527V17.7235Z" fill="white"/>
</svg>
