<svg width="24" height="24" viewBox="0 0 24 24" fill="none" xmlns="http://www.w3.org/2000/svg">
<path d="M4.99781 13.2925H0.0243378C0.670455 19.2999 5.76609 23.9809 11.9653 23.9999L4.99781 13.2925Z" fill="#1866ED"/>
<path d="M3.49935 10.9886H6.25485L7.75341 13.2926L11.9667 19.7692L16.1814 13.2926L17.68 10.9886H20.4355H24C23.4855 4.83515 18.3125 0 12.0007 0C11.9898 0 11.979 0.00135211 11.9695 0.00135211L17.942 9.17949H5.99559L11.9681 0.00135211C5.67253 0.0175775 0.51445 4.84597 0 10.9886H3.49935ZM15.5421 10.9886L11.9681 16.4795L8.39545 10.9886H15.5421Z" fill="#1866ED"/>
<path d="M18.9383 13.2926L11.9722 23.9986C11.9817 23.9986 11.9912 23.9986 12.0007 23.9986C18.2148 23.9986 23.3294 19.3109 23.9769 13.2913H18.9383V13.2926Z" fill="#1866ED"/>
</svg>
