<svg width="16" height="16" viewBox="0 0 16 16" fill="none" xmlns="http://www.w3.org/2000/svg">
<path d="M3.32195 4.79801C4.12755 4.79801 4.78061 4.14494 4.78061 3.33934C4.78061 2.53374 4.12755 1.88068 3.32195 1.88068C2.51635 1.88068 1.86328 2.53374 1.86328 3.33934C1.86328 4.14494 2.51635 4.79801 3.32195 4.79801Z" fill="#768193"/>
<path d="M6.1579 5.90334V13.996H8.67057V9.994C8.67057 8.938 8.86923 7.91534 10.1786 7.91534C11.4699 7.91534 11.4859 9.12267 11.4859 10.0607V13.9967H13.9999V9.55867C13.9999 7.37867 13.5306 5.70334 10.9826 5.70334C9.75923 5.70334 8.93923 6.37467 8.6039 7.01001H8.5699V5.90334H6.1579ZM2.06323 5.90334H4.5799V13.996H2.06323V5.90334Z" fill="#768193"/>
</svg>
