<svg width="16" height="16" viewBox="0 0 16 16" fill="none" xmlns="http://www.w3.org/2000/svg">
<path d="M9.02929 6.97064C8.48322 6.4248 7.74272 6.11816 6.97062 6.11816C6.19852 6.11816 5.45803 6.4248 4.91195 6.97064L2.85262 9.02931C2.30654 9.57539 1.99976 10.316 1.99976 11.0883C1.99976 11.8606 2.30654 12.6012 2.85262 13.1473C3.3987 13.6934 4.13935 14.0002 4.91162 14.0002C5.6839 14.0002 6.42454 13.6934 6.97062 13.1473L7.99996 12.118" stroke="#768193" stroke-width="2" stroke-linecap="round" stroke-linejoin="round"/>
<path d="M6.9707 9.02932C7.51677 9.57516 8.25727 9.8818 9.02937 9.8818C9.80147 9.8818 10.542 9.57516 11.088 9.02932L13.1474 6.97065C13.6935 6.42457 14.0002 5.68393 14.0002 4.91165C14.0002 4.13938 13.6935 3.39873 13.1474 2.85265C12.6013 2.30657 11.8606 1.99979 11.0884 1.99979C10.3161 1.99979 9.57545 2.30657 9.02937 2.85265L8.00004 3.88199" stroke="#768193" stroke-width="2" stroke-linecap="round" stroke-linejoin="round"/>
</svg>
