<svg width="198" height="29" viewBox="0 0 198 29" fill="none" xmlns="http://www.w3.org/2000/svg">
<path d="M198 13.9435L180.796 28.0762V23.1259C180.797 22.3443 180.97 21.5726 181.303 20.8656C181.636 20.1586 182.121 19.5337 182.723 19.0357L188.891 13.9435L182.788 9.01035C182.17 8.51278 181.672 7.88329 181.33 7.16809C180.988 6.45289 180.81 5.67012 180.809 4.87721V0L198 13.9435Z" fill="#5B46F9"/>
<path d="M14.808 2.09033V5.96113H4.817V12.1071H12.4726V15.9177H4.817V26.0463H0V2.09033H14.808Z" fill="#1C1C8E"/>
<path d="M24.1753 24.7127C22.3228 23.6818 20.7821 22.1708 19.7153 20.3387C18.6353 18.4081 18.0682 16.2328 18.0682 14.0207C18.0682 11.8085 18.6353 9.6333 19.7153 7.70268C20.7806 5.8683 22.3216 4.35562 24.1753 3.32438C26.0732 2.2869 28.2014 1.74316 30.3643 1.74316C32.5272 1.74316 34.6554 2.2869 36.5533 3.32438C38.3983 4.35685 39.9292 5.86987 40.9832 7.70268C42.0525 9.63678 42.6135 11.8107 42.6135 14.0207C42.6135 16.2307 42.0525 18.4046 40.9832 20.3387C39.9295 22.1692 38.4003 23.6806 36.5576 24.7127C34.6618 25.7471 32.5368 26.2892 30.3772 26.2892C28.2176 26.2892 26.0925 25.7471 24.1968 24.7127H24.1753ZM34.1663 21.0225C35.2783 20.3594 36.1746 19.3884 36.7468 18.227C37.3871 16.9129 37.7042 15.4649 37.6715 14.0035C37.707 12.5474 37.3897 11.1042 36.7468 9.79722C36.1735 8.6443 35.2768 7.68333 34.1663 7.03174C33.0054 6.37537 31.689 6.04405 30.3557 6.07265C29.0171 6.04581 27.6957 6.37691 26.5279 7.03174C25.4154 7.68095 24.5181 8.64257 23.9474 9.79722C23.303 11.1039 22.9843 12.547 23.0184 14.0035C22.9871 15.4652 23.3056 16.9133 23.9474 18.227C24.5171 19.3901 25.4139 20.3617 26.5279 21.0225C27.6914 21.6902 29.0145 22.0292 30.3557 22.0031C31.6916 22.0306 33.0096 21.6915 34.1663 21.0225Z" fill="#1C1C8E"/>
<path d="M60.4275 26.0547L55.1417 16.7132H52.8752V26.0547H48.0668V2.09019H57.0642C58.6961 2.04368 60.3162 2.37949 61.7952 3.07079C63.0128 3.64292 64.0346 4.5615 64.7327 5.71154C65.3882 6.84223 65.7256 8.12923 65.709 9.4361C65.7404 11.041 65.2132 12.6069 64.2177 13.866C63.2221 15.1252 61.82 15.9994 60.2512 16.339L65.9843 26.0547H60.4275ZM52.8752 13.1091H56.8922C58.1939 13.1091 59.1659 12.7951 59.8082 12.1672C60.1398 11.8182 60.3964 11.405 60.5621 10.953C60.7278 10.5011 60.7991 10.0199 60.7716 9.53933C60.7989 9.06913 60.7273 8.59842 60.5613 8.15763C60.3954 7.71684 60.1388 7.31575 59.8082 6.98029C59.1674 6.37817 58.1954 6.07281 56.8922 6.07281H52.8752V13.1091Z" fill="#1C1C8E"/>
<path d="M102.701 2.09024L96.0045 26.0548H90.3402L85.8458 8.98887L81.1406 26.0548L75.5108 26.0849L69.0594 2.09024H74.2205L78.4268 20.6916L83.304 2.08594H88.6586L93.2606 20.5798L97.5141 2.08594L102.701 2.09024Z" fill="#1C1C8E"/>
<path d="M119.823 21.4871H110.279L108.701 26.0546H103.651L112.253 2.05566H117.844L126.446 26.0546H121.367L119.823 21.4871ZM118.532 17.6421L115.049 7.61671L111.582 17.6421H118.532Z" fill="#1C1C8E"/>
<path d="M143.095 26.0547L137.809 16.7132H135.543V26.0547H130.747V2.09019H139.745C141.376 2.04368 142.997 2.37949 144.476 3.07079C145.693 3.64292 146.715 4.5615 147.413 5.71154C148.069 6.84223 148.406 8.12923 148.389 9.4361C148.421 11.041 147.894 12.6069 146.898 13.866C145.902 15.1252 144.5 15.9994 142.931 16.339L148.665 26.0547H143.095ZM135.543 13.1091H139.56C140.861 13.1091 141.833 12.7951 142.476 12.1672C142.807 11.8182 143.064 11.405 143.23 10.953C143.395 10.5011 143.467 10.0199 143.439 9.53933C143.466 9.06913 143.395 8.59842 143.229 8.15763C143.063 7.71684 142.806 7.31575 142.476 6.98029C141.835 6.37817 140.863 6.07281 139.56 6.07281H135.543V13.1091Z" fill="#1C1C8E"/>
<path d="M168.784 3.56548C170.644 4.49939 172.185 5.963 173.214 7.77175C174.285 9.7086 174.823 11.8944 174.775 14.107C174.827 16.3076 174.287 18.4817 173.214 20.4035C172.179 22.1985 170.638 23.6493 168.784 24.5753C166.722 25.5957 164.444 26.1032 162.144 26.0548H153.765V2.09028H162.144C164.443 2.04038 166.722 2.54645 168.784 3.56548ZM167.808 19.9089C169.178 18.5326 169.865 16.5986 169.868 14.107C169.871 11.6153 169.184 9.66413 167.808 8.25344C166.434 6.84849 164.489 6.14459 161.971 6.14172H158.574V21.9819H161.971C164.489 21.9819 166.434 21.2909 167.808 19.9089Z" fill="#1C1C8E"/>
</svg>
