<svg width="188" height="51" viewBox="0 0 188 51" fill="none" xmlns="http://www.w3.org/2000/svg">
<path d="M187.806 25.2709L157.125 50.4614V41.6431C157.124 40.2493 157.431 38.8724 158.023 37.6108C158.616 36.3492 159.479 35.2339 160.553 34.3444L171.545 25.2709L160.641 16.4747C159.544 15.5862 158.659 14.4639 158.05 13.1897C157.442 11.9154 157.126 10.5214 157.125 9.10943V0.413086L187.806 25.2709Z" fill="#01E0AA"/>
<path d="M12.0481 0.347656V3.43131H4.10598V8.31191H10.1956V11.3401H4.10598V19.382H0.345703V0.347656H12.0481Z" fill="#1C1C8E"/>
<path d="M20.8558 18.3281C19.381 17.5075 18.1547 16.3042 17.3063 14.8451C16.4485 13.3114 15.998 11.5833 15.998 9.8259C15.998 8.0685 16.4485 6.34043 17.3063 4.80664C18.1554 3.35096 19.3817 2.15148 20.8558 1.33475C22.3631 0.51244 24.0527 0.081543 25.7697 0.081543C27.4867 0.081543 29.1763 0.51244 30.6836 1.33475C32.1481 2.15271 33.3634 3.35261 34.1999 4.80664C35.0506 6.34277 35.4969 8.06993 35.4969 9.8259C35.4969 11.5819 35.0506 13.309 34.1999 14.8451C33.3597 16.303 32.1409 17.5065 30.6725 18.3281C29.1672 19.1504 27.4794 19.5814 25.7642 19.5814C24.0489 19.5814 22.3611 19.1504 20.8558 18.3281ZM28.7868 15.3887C29.6716 14.8639 30.3846 14.0931 30.8389 13.1702C31.3401 12.1336 31.5908 10.9938 31.571 9.84253C31.5946 8.69091 31.3437 7.55022 30.8389 6.51485C30.384 5.59232 29.6712 4.82166 28.7868 4.29639C27.8655 3.77133 26.8188 3.50677 25.7586 3.53103C24.6955 3.51134 23.6463 3.77554 22.7193 4.29639C21.8325 4.81862 21.1189 5.59011 20.6673 6.51485C20.1537 7.54753 19.8987 8.68949 19.9241 9.84253C19.9022 10.9952 20.1571 12.1364 20.6673 13.1702C21.1184 14.0953 21.8321 14.867 22.7193 15.3887C23.6434 15.918 24.6939 16.1864 25.7586 16.1651C26.8204 16.1912 27.8686 15.9224 28.7868 15.3887Z" fill="#1C1C8E"/>
<path d="M50.3391 19.3823L46.1352 11.9727H44.3382V19.3823H40.5225V0.347964H47.6659C48.9623 0.314892 50.2489 0.580567 51.4262 1.12442C52.3943 1.58068 53.205 2.31421 53.7555 3.23196C54.2262 3.99493 54.5077 4.85935 54.5764 5.75317C54.6452 6.64699 54.4993 7.54431 54.1509 8.37029C53.8025 9.19628 53.2617 9.927 52.5735 10.5015C51.8854 11.0761 51.0698 11.4778 50.1949 11.6732L54.7539 19.3823H50.3391ZM44.3382 9.11087H47.5217C47.9388 9.14423 48.3583 9.09476 48.7562 8.96531C49.1541 8.83586 49.5224 8.62898 49.84 8.35659C50.1038 8.08014 50.308 7.75232 50.4396 7.39355C50.5713 7.03479 50.6277 6.65275 50.6053 6.27124C50.6288 5.89798 50.5727 5.524 50.4408 5.17405C50.3088 4.8241 50.104 4.50619 49.84 4.24136C49.1927 3.70346 48.3605 3.44064 47.5217 3.50927H44.3382V9.11087Z" fill="#1C1C8E"/>
<path d="M85.6237 0.34724L80.3104 19.3816H75.7737L72.202 5.82683L68.4639 19.3816H64.027L58.9023 0.313965H62.9954L66.3231 15.1L70.2276 0.34724H74.487L78.1364 15.0556L81.4641 0.34724H85.6237Z" fill="#1C1C8E"/>
<path d="M101.962 15.7546H94.375L93.1216 19.3817H89.084L95.9279 0.325195H100.365L107.209 19.3817H103.171L101.962 15.7546ZM100.931 12.7042L98.1686 4.73993L95.4177 12.7042H100.931Z" fill="#1C1C8E"/>
<path d="M121.818 19.3825L117.614 11.9729H115.817V19.3825H112.001V0.348155H119.144C120.441 0.313884 121.728 0.579614 122.905 1.12462C123.875 1.57803 124.686 2.31224 125.234 3.23215C125.705 3.99437 125.987 4.858 126.056 5.75114C126.125 6.64428 125.98 7.54109 125.633 8.36688C125.286 9.19268 124.746 9.92357 124.06 10.4987C123.373 11.0738 122.558 11.4766 121.685 11.6734L126.232 19.3825H121.818ZM115.817 9.11106H119.033C119.875 9.17475 120.708 8.9037 121.352 8.35678C121.614 8.0794 121.816 7.75117 121.945 7.39244C122.075 7.03372 122.13 6.65216 122.106 6.27143C122.131 5.89899 122.077 5.52549 121.947 5.17559C121.817 4.82569 121.614 4.50734 121.352 4.24155C120.703 3.7068 119.872 3.44439 119.033 3.50946H115.817V9.11106Z" fill="#1C1C8E"/>
<path d="M143.592 1.52418C145.068 2.25975 146.292 3.41817 147.108 4.85186C147.961 6.39055 148.39 8.12864 148.35 9.88776C148.392 11.6365 147.963 13.3643 147.108 14.8904C146.288 16.3208 145.065 17.4781 143.592 18.2181C141.945 19.004 140.135 19.3844 138.312 19.3273H131.656V0.348399H138.312C140.14 0.312467 141.951 0.715674 143.592 1.52418ZM142.815 14.5021C143.384 13.8846 143.823 13.1587 144.105 12.3678C144.387 11.5768 144.507 10.7371 144.457 9.89885C144.506 9.05393 144.386 8.20773 144.104 7.40971C143.822 6.61169 143.384 5.87788 142.815 5.25119C142.2 4.66673 141.47 4.21538 140.672 3.92529C139.875 3.63521 139.026 3.51262 138.178 3.56516H135.483V16.1438H138.178C139.025 16.1924 139.873 16.0679 140.67 15.7781C141.468 15.4882 142.197 15.039 142.815 14.4578V14.5021Z" fill="#1C1C8E"/>
<path d="M7.15689 31.5388C8.07342 31.5157 8.97995 31.7337 9.78576 32.171C10.5258 32.5853 11.1334 33.2006 11.5383 33.9458C11.9651 34.7631 12.1788 35.675 12.1595 36.5968C12.1723 37.5216 11.9591 38.4354 11.5383 39.259C11.1375 40.036 10.5314 40.6882 9.78576 41.1447C8.99107 41.6154 8.08026 41.8536 7.15689 41.8324H1.28907L1.38891 41.6438V49.5304C1.3895 49.5999 1.37491 49.6686 1.34617 49.7319C1.31743 49.7951 1.27523 49.8513 1.22252 49.8965C1.12012 50.001 0.980583 50.0608 0.834293 50.0629C0.757864 50.067 0.681469 50.0542 0.610538 50.0254C0.539607 49.9967 0.475877 49.9526 0.423876 49.8965C0.375756 49.8488 0.338085 49.7917 0.313259 49.7286C0.288433 49.6656 0.276999 49.5981 0.279679 49.5304V32.0712C0.279679 31.93 0.335772 31.7946 0.435622 31.6947C0.535472 31.5949 0.670895 31.5388 0.812104 31.5388H7.15689ZM7.15689 40.7675C7.88648 40.7922 8.60739 40.6033 9.23115 40.224C9.80877 39.8639 10.2738 39.3489 10.5733 38.7377C10.8949 38.0703 11.0581 37.3376 11.0503 36.5968C11.0674 35.8658 10.9036 35.1418 10.5733 34.4893C10.2615 33.9092 9.79245 33.4286 9.22005 33.1028C8.58678 32.7501 7.87042 32.5739 7.14579 32.5925H1.30017L1.37781 32.4594V40.8563L1.27798 40.7675H7.15689Z" fill="#1C1C8E"/>
<path d="M18.0941 50.0624C18.0176 50.0665 17.9412 50.0537 17.8703 50.025C17.7994 49.9962 17.7357 49.9522 17.6836 49.896C17.6355 49.8483 17.5979 49.7912 17.573 49.7282C17.5482 49.6651 17.5368 49.5977 17.5394 49.53V32.0707C17.5394 31.9295 17.5955 31.7941 17.6954 31.6942C17.7952 31.5944 17.9307 31.5383 18.0719 31.5383H25.0489C25.9991 31.5191 26.9397 31.7323 27.7887 32.1595C28.548 32.5486 29.1851 33.1397 29.63 33.8677C30.0761 34.6103 30.303 35.464 30.2845 36.3302C30.2987 37.0919 30.1512 37.848 29.8519 38.5486C29.5785 39.1771 29.1604 39.732 28.6317 40.1681C28.1121 40.6086 27.5027 40.9303 26.8459 41.1109L25.6368 40.9002C26.3425 40.8992 27.0357 41.0869 27.6445 41.4437C28.2987 41.8226 28.8389 42.3705 29.2085 43.0299C29.6332 43.8117 29.8437 44.6918 29.8186 45.5811C29.8041 46.2411 29.8412 46.9013 29.9295 47.5555C29.9752 47.9016 30.0842 48.2363 30.2512 48.5428C30.3737 48.7401 30.5317 48.9131 30.7171 49.053C30.814 49.1182 30.8938 49.2057 30.95 49.3081C30.9981 49.413 31.0101 49.5309 30.984 49.6433C30.9579 49.7557 30.8952 49.8563 30.8058 49.9293C30.7343 49.9937 30.6457 50.0361 30.5507 50.0513C30.4577 50.0862 30.3553 50.0862 30.2623 50.0513C29.9817 49.887 29.7336 49.6727 29.5302 49.419C29.2428 49.034 29.0423 48.5912 28.9423 48.1213C28.7624 47.2648 28.6953 46.3885 28.7427 45.5146C28.7738 44.8324 28.6446 44.1523 28.3655 43.5291C28.1352 43.0854 27.8002 42.7047 27.3894 42.4198C27.0042 42.1586 26.5704 41.9776 26.1138 41.8874C25.7086 41.8033 25.2963 41.7588 24.8825 41.7543H18.4601L18.693 41.4326V49.5078C18.6936 49.5762 18.6801 49.644 18.6534 49.7069C18.6267 49.7699 18.5873 49.8267 18.5377 49.8738C18.4833 49.9373 18.4149 49.9873 18.338 50.02C18.261 50.0527 18.1775 50.0672 18.0941 50.0624ZM18.3825 40.7227H25.182C25.8752 40.6525 26.545 40.433 27.1454 40.0794C27.7532 39.723 28.2578 39.2146 28.6095 38.6041C28.9939 37.9288 29.1893 37.1625 29.1753 36.3856C29.193 35.8849 29.1031 35.3862 28.9118 34.9232C28.7204 34.4601 28.432 34.0435 28.066 33.7013C27.2089 32.9435 26.0922 32.5461 24.9491 32.5921H18.5488L18.6819 32.4146V41.0111L18.3825 40.7227Z" fill="#1C1C8E"/>
<path d="M52.8237 40.8012C52.8378 42.1166 52.6162 43.424 52.1693 44.6613C51.774 45.7991 51.1513 46.8445 50.339 47.7339C49.5501 48.5733 48.5941 49.2384 47.5327 49.6861C46.4092 50.1565 45.201 50.3906 43.9831 50.3738C42.7687 50.3926 41.5637 50.1584 40.4447 49.6861C39.3818 49.241 38.4253 48.5756 37.6384 47.7339C36.8355 46.8434 36.2239 45.7976 35.8414 44.6613C34.9734 42.1459 34.9734 39.4121 35.8414 36.8967C36.2439 35.7764 36.8704 34.7498 37.6827 33.8796C38.4691 33.0343 39.4255 32.3652 40.4891 31.9163C41.6097 31.4495 42.8136 31.2155 44.0275 31.2285C45.2449 31.2164 46.4522 31.4503 47.577 31.9163C48.639 32.3681 49.5949 33.0369 50.3834 33.8796C51.1893 34.7526 51.8117 35.7786 52.2136 36.8967C52.6507 38.1508 52.8574 39.4735 52.8237 40.8012ZM51.7145 40.8012C51.7474 39.263 51.4047 37.7401 50.7162 36.3643C50.1152 35.1465 49.1903 34.1179 48.0429 33.3915C46.8215 32.7004 45.442 32.3371 44.0386 32.3371C42.6352 32.3371 41.2557 32.7004 40.0343 33.3915C38.8658 34.1077 37.9177 35.1325 37.2945 36.3532C36.6477 37.7429 36.3126 39.2572 36.3126 40.7901C36.3126 42.3229 36.6477 43.8373 37.2945 45.227C37.9177 46.4476 38.8658 47.4725 40.0343 48.1886C41.2557 48.8798 42.6352 49.2431 44.0386 49.2431C45.442 49.2431 46.8215 48.8798 48.0429 48.1886C49.2051 47.4716 50.1458 46.4464 50.7605 45.227C51.4307 43.8502 51.758 42.3318 51.7145 40.8012Z" fill="#1C1C8E"/>
<path d="M56.6614 32.5479C56.5226 32.5458 56.389 32.4947 56.2842 32.4037C56.2346 32.3565 56.1953 32.2997 56.1686 32.2368C56.1418 32.1738 56.1283 32.106 56.1289 32.0376C56.1298 31.9711 56.1441 31.9054 56.1707 31.8445C56.1974 31.7835 56.236 31.7285 56.2842 31.6827C56.3861 31.5869 56.5216 31.5352 56.6614 31.5385H69.5173C69.585 31.5358 69.6525 31.5472 69.7155 31.572C69.7785 31.5969 69.8357 31.6345 69.8834 31.6827C69.9352 31.7262 69.977 31.7805 70.0057 31.8418C70.0344 31.9031 70.0495 31.9699 70.0497 32.0376C70.0537 32.1091 70.0407 32.1806 70.0117 32.2461C69.9828 32.3117 69.9388 32.3694 69.8834 32.4148C69.7825 32.5038 69.6518 32.5513 69.5173 32.5479H56.6614ZM63.0838 50.0626C63.0124 50.0656 62.9412 50.0522 62.8758 50.0234C62.8104 49.9945 62.7525 49.951 62.7067 49.8962C62.6585 49.8485 62.6209 49.7914 62.596 49.7283C62.5712 49.6653 62.5598 49.5978 62.5624 49.5301V32.204H63.5719V49.5301C63.5724 49.5985 63.5589 49.6663 63.5322 49.7293C63.5055 49.7923 63.4661 49.8491 63.4166 49.8962C63.3305 49.9916 63.2117 50.051 63.0838 50.0626Z" fill="#1C1C8E"/>
<path d="M91.0253 40.8011C91.0376 42.1154 90.8199 43.4218 90.3819 44.6612C89.9817 45.7991 89.3554 46.8443 88.5406 47.7337C87.7529 48.5507 86.8051 49.1964 85.7565 49.6305C83.4828 50.5477 80.9421 50.5477 78.6685 49.6305C77.6026 49.2044 76.6388 48.5581 75.84 47.7337C75.0276 46.8635 74.4011 45.837 73.9986 44.7166C73.1307 42.2012 73.1307 39.4675 73.9986 36.952C74.4011 35.8317 75.0276 34.8051 75.84 33.9349C76.6263 33.0897 77.5827 32.4206 78.6463 31.9716C80.9199 31.0544 83.4606 31.0544 85.7343 31.9716C86.7962 32.4235 87.7521 33.0922 88.5406 33.9349C89.3491 34.8081 89.9751 35.8338 90.3819 36.952C90.8186 38.1879 91.0363 39.4904 91.0253 40.8011ZM89.9161 40.8011C89.949 39.2629 89.6063 37.74 88.9178 36.3642C88.303 35.1447 87.3623 34.1196 86.2001 33.4025C84.9787 32.7113 83.5992 32.3481 82.1958 32.3481C80.7924 32.3481 79.4129 32.7113 78.1915 33.4025C77.023 34.1187 76.0749 35.1435 75.4517 36.3642C74.805 37.7539 74.4698 39.2682 74.4698 40.8011C74.4698 42.3339 74.805 43.8482 75.4517 45.238C76.0749 46.4586 77.023 47.4835 78.1915 48.1996C79.4129 48.8908 80.7924 49.254 82.1958 49.254C83.5992 49.254 84.9787 48.8908 86.2001 48.1996C87.3623 47.4826 88.303 46.4574 88.9178 45.238C89.605 43.8617 89.9476 42.3391 89.9161 40.8011Z" fill="#1C1C8E"/>
<path d="M110.282 33.0697C110.407 33.1556 110.495 33.2868 110.526 33.4358C110.535 33.5776 110.495 33.7182 110.415 33.8351C110.382 33.8946 110.333 33.9444 110.275 33.9795C110.217 34.0145 110.15 34.0336 110.082 34.0348C109.95 34.0439 109.819 34.013 109.705 33.946C108.957 33.4326 108.144 33.0222 107.287 32.7259C106.386 32.4244 105.441 32.2744 104.491 32.2822C103.423 32.2711 102.364 32.4756 101.377 32.8835C100.389 33.2914 99.4945 33.8942 98.7456 34.6559C97.9975 35.4386 97.4064 36.3573 97.0041 37.3624C96.1606 39.5773 96.1606 42.0248 97.0041 44.2397C97.4036 45.2429 97.9952 46.1585 98.7456 46.9351C99.4684 47.6839 100.331 48.2832 101.286 48.6988C102.287 49.1161 103.362 49.3273 104.447 49.3199C105.39 49.326 106.328 49.1723 107.22 48.8651C108.082 48.5943 108.906 48.2141 109.671 47.7337C109.788 47.6513 109.929 47.612 110.071 47.6228C110.14 47.6321 110.206 47.6556 110.265 47.6919C110.324 47.7282 110.375 47.7764 110.415 47.8336C110.497 47.9496 110.536 48.0909 110.526 48.2329C110.516 48.3017 110.493 48.3678 110.456 48.427C110.42 48.4863 110.372 48.5372 110.315 48.5767C109.81 48.9235 109.271 49.2172 108.706 49.453C108.048 49.7397 107.365 49.9662 106.665 50.1297C105.938 50.2957 105.193 50.3775 104.447 50.3737C103.22 50.384 102.005 50.1423 100.875 49.6638C99.7766 49.1927 98.7787 48.5149 97.9358 47.6672C96.622 46.2767 95.7353 44.538 95.3814 42.6581C95.0274 40.7781 95.221 38.836 95.9392 37.0629C96.4035 35.9377 97.0816 34.9131 97.9358 34.0459C98.7862 33.183 99.7999 32.4983 100.918 32.0317C102.036 31.5651 103.236 31.326 104.447 31.3282C105.501 31.3232 106.549 31.4842 107.553 31.8052C108.523 32.081 109.444 32.5077 110.282 33.0697Z" fill="#1C1C8E"/>
<path d="M132.034 40.8009C132.048 42.1164 131.827 43.4237 131.38 44.661C130.984 45.7988 130.362 46.8442 129.549 47.7336C128.771 48.5468 127.835 49.1923 126.799 49.6304C124.525 50.5476 121.984 50.5476 119.711 49.6304C118.621 49.2126 117.634 48.5658 116.816 47.7336C116.003 46.8634 115.377 45.8368 114.974 44.7165C114.106 42.2011 114.106 39.4673 114.974 36.9519C115.375 35.8276 116.002 34.7972 116.816 33.9237C117.602 33.0785 118.558 32.4093 119.622 31.9604C121.896 31.0432 124.436 31.0432 126.71 31.9604C127.772 32.4122 128.728 33.081 129.516 33.9237C130.322 34.7968 130.944 35.8227 131.346 36.9408C131.805 38.176 132.038 39.4834 132.034 40.8009ZM130.925 40.8009C130.958 39.2628 130.615 37.7398 129.927 36.364C129.312 35.1446 128.371 34.1194 127.209 33.4024C125.988 32.7112 124.608 32.3479 123.205 32.3479C121.801 32.3479 120.422 32.7112 119.2 33.4024C118.032 34.1185 117.084 35.1434 116.461 36.364C115.814 37.7537 115.479 39.2681 115.479 40.8009C115.479 42.3338 115.814 43.8481 116.461 45.2378C117.084 46.4585 118.032 47.4833 119.2 48.1995C120.422 48.8906 121.801 49.2539 123.205 49.2539C124.608 49.2539 125.988 48.8906 127.209 48.1995C128.371 47.4824 129.312 46.4573 129.927 45.2378C130.614 43.8616 130.956 42.3389 130.925 40.8009Z" fill="#1C1C8E"/>
<path d="M147.874 48.9975C147.942 48.9969 148.01 49.0104 148.073 49.0371C148.136 49.0638 148.193 49.1032 148.24 49.1528C148.292 49.2006 148.334 49.2589 148.363 49.3238C148.391 49.3887 148.406 49.459 148.406 49.5299C148.409 49.6013 148.396 49.6725 148.367 49.7379C148.338 49.8033 148.295 49.8612 148.24 49.9071C148.193 49.9566 148.136 49.996 148.073 50.0227C148.01 50.0494 147.942 50.0629 147.874 50.0624H138.113C138.041 50.0646 137.97 50.0508 137.905 50.022C137.84 49.9932 137.782 49.9501 137.735 49.896C137.687 49.8483 137.65 49.7911 137.625 49.7281C137.6 49.6651 137.589 49.5976 137.591 49.5299V32.0707C137.592 31.9296 137.648 31.7943 137.746 31.6935C137.855 31.593 137.998 31.5371 138.146 31.5371C138.294 31.5371 138.436 31.593 138.545 31.6935C138.644 31.7943 138.7 31.9296 138.7 32.0707V49.4745L138.223 48.9975H147.874Z" fill="#1C1C8E"/>
</svg>
