<svg width="16" height="16" viewBox="0 0 16 16" fill="none" xmlns="http://www.w3.org/2000/svg">
<g clip-path="url(#clip0)">
<path d="M8.85886 7.9927C8.85886 10.2679 7.02699 12.1123 4.76739 12.1123C2.50779 12.1123 0.675781 10.2679 0.675781 7.9927C0.675781 5.71753 2.50765 3.87302 4.76739 3.87302C7.02713 3.87302 8.85886 5.71753 8.85886 7.9927Z" fill="#768193"/>
<path d="M13.3475 7.99165C13.3475 10.1332 12.4315 11.87 11.3017 11.87C10.1718 11.87 9.25586 10.1332 9.25586 7.99165C9.25586 5.85007 10.1717 4.11328 11.3015 4.11328C12.4314 4.11328 13.3473 5.84951 13.3473 7.99165" fill="#768193"/>
<path d="M15.183 7.99198C15.183 9.91032 14.8609 11.4664 14.4635 11.4664C14.0661 11.4664 13.7441 9.91073 13.7441 7.99198C13.7441 6.07323 14.0662 4.51758 14.4635 4.51758C14.8608 4.51758 15.183 6.0731 15.183 7.99198Z" fill="#768193"/>
</g>
<defs>
<clipPath id="clip0">
<rect width="16" height="16" fill="white"/>
</clipPath>
</defs>
</svg>
