<svg width="20" height="20" viewBox="0 0 20 20" fill="none" xmlns="http://www.w3.org/2000/svg">
<path d="M17.4956 5.74996C17.4818 5.60991 17.4326 5.47567 17.3527 5.3598C17.2729 5.24393 17.1649 5.15023 17.039 5.08746L10.3723 1.75412C10.2565 1.69619 10.1288 1.66603 9.99937 1.66603C9.86991 1.66603 9.74223 1.69619 9.62646 1.75412L2.95979 5.08746C2.83418 5.15059 2.72655 5.24441 2.64687 5.36022C2.56718 5.47603 2.51803 5.61009 2.50396 5.74996C2.49479 5.83912 1.70312 14.7225 9.66146 18.2616C9.76779 18.3096 9.88313 18.3344 9.99979 18.3344C10.1165 18.3344 10.2318 18.3096 10.3381 18.2616C18.2965 14.7225 17.5048 5.83996 17.4956 5.74996ZM9.99979 16.5808C4.35896 13.8541 4.09229 8.03496 4.13812 6.36246L9.99979 3.43162L15.8573 6.36079C15.8881 8.01829 15.584 13.8758 9.99979 16.5808Z" fill="#17C7A7"/>
<path d="M9.1668 10.4883L7.25597 8.5775L6.07764 9.75583L9.1668 12.845L13.9226 8.08916L12.7443 6.91083L9.1668 10.4883Z" fill="#17C7A7"/>
</svg>
