<svg width="17" height="15" viewBox="0 0 17 15" fill="none" xmlns="http://www.w3.org/2000/svg">
<path d="M8.60882 2.16654L14.8838 13.0082H2.33382L8.60882 2.16654ZM0.892158 12.1749C0.250492 13.2832 1.05049 14.6749 2.33382 14.6749H14.8838C16.1672 14.6749 16.9672 13.2832 16.3255 12.1749L10.0505 1.3332C9.40882 0.22487 7.80883 0.22487 7.16716 1.3332L0.892158 12.1749Z" fill="#D90000"/>
<path d="M7.77539 6.34163V8.8333C7.77539 9.29163 8.15039 9.66663 8.60872 9.66663C9.06706 9.66663 9.44206 9.29163 9.44206 8.8333V6.34163C9.44206 5.8833 9.06706 5.5083 8.60872 5.5083C8.15039 5.5083 7.77539 5.8833 7.77539 6.34163Z" fill="#D90000"/>
<path d="M8.60872 12.175C9.06896 12.175 9.44206 11.8019 9.44206 11.3416C9.44206 10.8814 9.06896 10.5083 8.60872 10.5083C8.14849 10.5083 7.77539 10.8814 7.77539 11.3416C7.77539 11.8019 8.14849 12.175 8.60872 12.175Z" fill="#D90000"/>
</svg>
