<svg width="18" height="24" viewBox="0 0 18 24" fill="none" xmlns="http://www.w3.org/2000/svg">
<g clip-path="url(#clip0_2940:1644)">
<path d="M17.7181 11.4362C16.2556 10.9256 14.7882 10.4247 13.3289 9.90282C12.0177 9.43409 10.7211 8.91705 9.40027 8.48054C9.05879 8.36779 8.60456 8.37423 8.26792 8.49987C5.78255 9.42926 3.3149 10.4038 0.840805 11.3573C0.570201 11.4604 0.280268 11.5184 0 11.5973C0 10.7388 0 9.87866 0 9.02013C0.302819 8.91705 0.607248 8.82201 0.906846 8.70926C2.28564 8.1906 2.26309 8.18899 2.30658 6.72161C2.39034 3.94148 3.59517 1.83624 6.1643 0.645906C6.85369 0.32698 7.63651 0.209396 8.37584 0C8.64483 0 8.91221 0 9.18121 0C9.30685 0.0418792 9.42926 0.103087 9.55812 0.120805C11.7342 0.41557 13.3804 1.49315 14.4934 3.39866C15.2247 4.6502 15.3374 6.01289 15.3503 7.41423C15.3519 7.68 15.4953 8.09557 15.6886 8.18255C16.3361 8.47248 17.0368 8.64322 17.7181 8.85906C17.7181 9.71758 17.7181 10.5777 17.7181 11.4362ZM13.1742 7.27087C13.353 5.19946 12.8005 3.54685 11.0078 2.51436C9.38899 1.58174 7.7396 1.66711 6.23839 2.75114C4.72591 3.84322 4.29906 5.42174 4.53745 7.32564C5.81476 6.83597 7.02443 6.34309 8.25664 5.92107C8.59973 5.80349 9.04429 5.79544 9.38738 5.90658C10.6325 6.31087 11.8534 6.78765 13.1742 7.27087Z" fill="#1866ED"/>
<path d="M0 13.3692C0.769933 13.0841 1.54148 12.799 2.45476 12.4607C2.45476 13.912 2.48054 15.2409 2.44188 16.5697C2.42577 17.1013 2.61906 17.3864 3.06685 17.6473C4.84671 18.6878 6.61208 19.7558 8.35973 20.8478C8.78819 21.1152 9.09101 21.1007 9.50819 20.8333C11.2671 19.7074 13.0599 18.6331 14.8107 17.4959C15.062 17.3332 15.2843 16.9273 15.2956 16.6245C15.3471 15.2392 15.3181 13.8508 15.3181 12.4011C16.1573 12.683 16.9369 12.9456 17.7165 13.2081C17.7165 14.6578 17.7165 16.1074 17.7165 17.5571C17.3621 18.5686 16.647 19.2274 15.7434 19.7767C13.4851 21.1539 11.2591 22.5891 9.02013 24.0001C8.96698 24.0001 8.91221 24.0001 8.85906 24.0001C6.70228 22.6841 4.56805 21.3295 2.38067 20.0666C1.16456 19.3643 0.233557 18.5187 0 17.0739C0 15.8384 0 14.6046 0 13.3692Z" fill="#1866ED"/>
<path d="M10.0865 11.6777C10.0865 14.1341 10.1348 16.4117 10.0349 18.6812C10.0204 19.0259 9.27788 19.6428 8.94929 19.5961C8.48862 19.5301 7.76701 18.984 7.73802 18.6007C7.60755 16.8401 7.67037 15.0651 7.69453 13.2949C7.69775 13.1016 7.85238 12.8278 8.01667 12.7328C8.63842 12.3752 9.29238 12.0756 10.0865 11.6777Z" fill="#1866ED"/>
<path d="M11.4653 18.1207C11.4653 16.0557 11.4556 14.1631 11.4798 12.2705C11.483 12.082 11.6521 11.8195 11.8212 11.7212C12.4398 11.3604 13.0889 11.0528 13.883 10.6453C13.883 11.3427 13.883 11.9129 13.883 12.4831C13.883 13.6622 13.9055 14.8412 13.8669 16.0187C13.8572 16.2925 13.7155 16.6533 13.5093 16.8096C12.9165 17.2573 12.2594 17.6214 11.4653 18.1207Z" fill="#1866ED"/>
<path d="M6.23513 12.7781C6.23513 14.5032 6.23513 16.2186 6.23513 18.0597C5.47325 17.6022 4.78708 17.206 4.12184 16.7775C3.99298 16.6938 3.90278 16.4957 3.86896 16.3346C3.82547 16.13 3.85607 15.9093 3.85607 15.6951C3.85446 13.6559 4.09929 13.3515 6.23513 12.7781Z" fill="#1866ED"/>
</g>
<defs>
<clipPath id="clip0_2940:1644">
<rect width="17.7181" height="24" fill="white"/>
</clipPath>
</defs>
</svg>
