<svg width="16" height="16" viewBox="0 0 16 16" fill="none" xmlns="http://www.w3.org/2000/svg">
<path d="M8.16357 1.33337C6.91397 1.33337 5.69243 1.72437 4.65342 2.45691C3.61441 3.18945 2.8046 4.23064 2.3264 5.44882C1.8482 6.66699 1.72308 8.00744 1.96686 9.30064C2.21065 10.5938 2.81239 11.7817 3.69599 12.7141C4.5796 13.6464 5.70538 14.2814 6.93097 14.5386C8.15656 14.7958 9.42693 14.6638 10.5814 14.1592C11.7359 13.6547 12.7226 12.8002 13.4169 11.7038C14.1111 10.6075 14.4817 9.31858 14.4817 8.00004C14.4817 7.12456 14.3183 6.25766 14.0007 5.44882C13.6832 4.63998 13.2178 3.90505 12.6312 3.286C12.0445 2.66694 11.348 2.17588 10.5814 1.84084C9.81486 1.50581 8.99328 1.33337 8.16357 1.33337ZM8.16357 13.3334C7.16389 13.3334 6.18666 13.0206 5.35545 12.4345C4.52424 11.8485 3.8764 11.0156 3.49383 10.041C3.11127 9.06648 3.01118 7.99412 3.2062 6.95956C3.40123 5.92499 3.88263 4.97468 4.58951 4.2288C5.29639 3.48292 6.19702 2.97497 7.17749 2.76919C8.15797 2.5634 9.17426 2.66902 10.0978 3.07268C11.0214 3.47635 11.8108 4.15994 12.3662 5.037C12.9216 5.91406 13.2181 6.94521 13.2181 8.00004C13.2181 9.41453 12.6855 10.7711 11.7376 11.7713C10.7897 12.7715 9.50411 13.3334 8.16357 13.3334Z" fill="white"/>
<path d="M10.6908 7.33342H8.79536V5.33341C8.79536 5.1566 8.72879 4.98703 8.61031 4.86201C8.49182 4.73699 8.33112 4.66675 8.16355 4.66675C7.99598 4.66675 7.83528 4.73699 7.71679 4.86201C7.5983 4.98703 7.53174 5.1566 7.53174 5.33341V8.00008C7.53174 8.17689 7.5983 8.34646 7.71679 8.47149C7.83528 8.59651 7.99598 8.66675 8.16355 8.66675H10.6908C10.8584 8.66675 11.0191 8.59651 11.1376 8.47149C11.256 8.34646 11.3226 8.17689 11.3226 8.00008C11.3226 7.82327 11.256 7.6537 11.1376 7.52868C11.0191 7.40365 10.8584 7.33342 10.6908 7.33342Z" fill="white"/>
</svg>
