<svg width="526" height="510" viewBox="0 0 526 510" fill="none" xmlns="http://www.w3.org/2000/svg">
<path d="M245.161 456.756C367.305 456.756 466.322 361.447 466.322 243.878C466.322 126.309 367.305 31 245.161 31C123.017 31 24 126.309 24 243.878C24 361.447 123.017 456.756 245.161 456.756Z" fill="#1866ED"/>
<path d="M245.161 456.756C367.305 456.756 466.322 361.447 466.322 243.878C466.322 126.309 367.305 31 245.161 31C123.017 31 24 126.309 24 243.878C24 361.447 123.017 456.756 245.161 456.756Z" fill="#1866ED"/>
<path d="M88.7667 394.373C2.43377 311.273 208.45 374.788 294.782 291.639C381.115 208.491 315.18 10.2401 401.513 93.3396C487.846 176.439 487.897 311.224 401.513 394.373C315.129 477.521 175.151 477.521 88.7667 394.373Z" fill="white" fill-opacity="0.4"/>
<path d="M267.241 294.478L234.911 325.597C214.769 344.985 214.769 376.694 234.911 396.082L303.855 329.72L357.858 277.74C383.406 253.149 383.406 213.047 357.858 188.456C332.31 163.865 290.648 163.865 265.1 188.456L217.726 234.055L204.723 246.572L217.93 259.284L155.207 275.433L171.985 215.06L185.192 227.772L255.309 160.282C275.451 140.893 275.451 109.185 255.309 89.7969L132.362 208.09C106.814 232.681 106.814 272.783 132.362 297.374C157.91 321.965 199.572 321.965 225.12 297.374C245.212 278.035 265.355 258.646 285.446 239.307L272.239 226.594L334.961 210.446L318.184 270.819L304.977 258.106L267.241 294.478Z" fill="white"/>
<path fill-rule="evenodd" clip-rule="evenodd" d="M325.027 246.59C334.364 224.734 339.481 200.714 342.819 177.707C348.253 180.535 353.354 184.155 357.936 188.566C383.484 213.157 383.484 253.259 357.936 277.85L303.934 329.83L234.99 396.192C214.847 376.804 214.847 345.095 234.99 325.707L235.404 325.308C257.664 318.086 278.43 307.574 294.861 291.749C302.504 284.388 308.955 276.124 314.422 267.232L318.263 270.929L325.027 246.59Z" fill="#1866ED" fill-opacity="0.1"/>
<g filter="url(#filter0_d_3901:1485)">
<line x1="387.408" y1="298" x2="387.408" y2="452" stroke="#2DEBC9" stroke-width="40" stroke-linecap="round"/>
<line x1="308.451" y1="374" x2="470" y2="374" stroke="#2DEBC9" stroke-width="40" stroke-linecap="round"/>
</g>
<defs>
<filter id="filter0_d_3901:1485" x="248.451" y="240" width="277.549" height="270" filterUnits="userSpaceOnUse" color-interpolation-filters="sRGB">
<feFlood flood-opacity="0" result="BackgroundImageFix"/>
<feColorMatrix in="SourceAlpha" type="matrix" values="0 0 0 0 0 0 0 0 0 0 0 0 0 0 0 0 0 0 127 0" result="hardAlpha"/>
<feOffset dx="-2"/>
<feGaussianBlur stdDeviation="19"/>
<feComposite in2="hardAlpha" operator="out"/>
<feColorMatrix type="matrix" values="0 0 0 0 0 0 0 0 0 0 0 0 0 0 0 0 0 0 0.18 0"/>
<feBlend mode="normal" in2="BackgroundImageFix" result="effect1_dropShadow_3901:1485"/>
<feBlend mode="normal" in="SourceGraphic" in2="effect1_dropShadow_3901:1485" result="shape"/>
</filter>
</defs>
</svg>
