<svg width="44" height="44" viewBox="0 0 44 44" fill="none" xmlns="http://www.w3.org/2000/svg">
<g clip-path="url(#clip0)">
<path d="M22.0025 44.0051C34.1542 44.0051 44.0051 34.1542 44.0051 22.0025C44.0051 9.85087 34.1542 0 22.0025 0C9.85087 0 0 9.85087 0 22.0025C0 34.1542 9.85087 44.0051 22.0025 44.0051Z" fill="#1866ED"/>
<path d="M22.0025 44.0051C34.1542 44.0051 44.0051 34.1542 44.0051 22.0025C44.0051 9.85087 34.1542 0 22.0025 0C9.85087 0 0 9.85087 0 22.0025C0 34.1542 9.85087 44.0051 22.0025 44.0051Z" fill="#1866ED"/>
<path d="M6.44288 37.5569C-2.14607 28.968 18.3497 35.5327 26.9387 26.9387C35.5276 18.3447 28.968 -2.14603 37.5569 6.44292C46.1459 15.0319 46.1509 28.9629 37.5569 37.5569C28.9629 46.151 15.0369 46.151 6.44288 37.5569Z" fill="#65C4FF"/>
<path d="M24.1993 27.233L20.9829 30.4494C18.979 32.4534 18.979 35.7307 20.9829 37.7346L27.8419 30.8756L33.2144 25.5031C35.7561 22.9614 35.7561 18.8166 33.2144 16.2749C30.6728 13.7332 26.5279 13.7332 23.9863 16.2749L19.2732 20.9879L17.9796 22.2816L19.2935 23.5955L13.0535 25.2646L14.7226 19.0246L16.0365 20.3385L23.0122 13.3629C25.0161 11.3589 25.0161 8.08165 23.0122 6.07773L10.7807 18.3042C8.239 20.8459 8.239 24.9907 10.7807 27.5324C13.3224 30.074 17.4672 30.074 20.0089 27.5324C22.0077 25.5335 24.0116 23.5296 26.0105 21.5307L24.6965 20.2168L30.9366 18.5477L29.2675 24.7877L27.9535 23.4738L24.1993 27.233Z" fill="white"/>
</g>
<defs>
<clipPath id="clip0">
<rect width="44" height="44" fill="white"/>
</clipPath>
</defs>
</svg>
