<svg width="20" height="20" viewBox="0 0 20 20" fill="none" xmlns="http://www.w3.org/2000/svg">
<g clip-path="url(#clip0)">
<path fill-rule="evenodd" clip-rule="evenodd" d="M10.0012 20.0023C15.5246 20.0023 20.0023 15.5246 20.0023 10.0012C20.0023 4.47767 15.5246 0 10.0012 0C4.47767 0 0 4.47767 0 10.0012C0 15.5246 4.47767 20.0023 10.0012 20.0023ZM2.92864 17.0714C0.8821 15.0248 2.46842 14.8711 5.0036 14.6253C6.38449 14.4915 8.0469 14.3304 9.55708 13.8212L10.9996 12.3786L12.7061 10.6699L13.1294 11.0932C13.3126 10.7837 13.4715 10.458 13.6098 10.1214L14.062 8.43076L11.2256 9.18944L11.8229 9.78669L9.09488 12.5147C7.93958 13.67 6.05557 13.67 4.90026 12.5147C3.74495 11.3594 3.74495 9.47538 4.90026 8.32007L10.46 2.7626C11.3709 3.67347 11.3709 5.16315 10.46 6.07402L7.28928 9.24478L6.69203 8.64753L5.93335 11.4839L8.76974 10.7252L8.17248 10.128L8.76051 9.53995L10.9028 7.39767C11.8508 6.44965 13.2895 6.27956 14.4136 6.88738C14.5053 6.23102 14.5672 5.59222 14.6243 5.00441C14.8704 2.46849 15.0244 0.88162 17.0714 2.92863C20.9755 6.83269 20.9778 13.165 17.0714 17.0714C13.165 20.9777 6.83502 20.9777 2.92864 17.0714Z" fill="white"/>
<path fill-rule="evenodd" clip-rule="evenodd" d="M20.0023 10.0012C20.0023 15.5246 15.5246 20.0023 10.0012 20.0023C4.47767 20.0023 0 15.5246 0 10.0012C0 4.47767 4.47767 0 10.0012 0C15.5246 0 20.0023 4.47767 20.0023 10.0012ZM9.53764 13.8407L10.9996 12.3786L12.7061 10.6699L13.3033 11.2672L14.062 8.43076L11.2256 9.18944L11.8229 9.78669L9.09488 12.5147C7.93958 13.67 6.05557 13.67 4.90026 12.5147C3.74495 11.3594 3.74495 9.47538 4.90026 8.32007L10.46 2.7626C11.3709 3.67347 11.3709 5.16315 10.46 6.07402L7.28928 9.24478L6.69203 8.64753L5.93335 11.4839L8.76974 10.7252L8.17248 10.128L8.76051 9.53995L10.9028 7.39767C12.0581 6.24236 13.9421 6.24236 15.0974 7.39767C16.2527 8.55298 16.2527 10.437 15.0974 11.5923L12.6554 14.0344L9.53764 17.1521C8.62677 16.2412 8.62677 14.7515 9.53764 13.8407Z" fill="white" fill-opacity="0.5"/>
</g>
<defs>
<clipPath id="clip0">
<rect width="20" height="20" fill="white"/>
</clipPath>
</defs>
</svg>
