<svg width="45" height="45" viewBox="0 0 45 45" fill="none" xmlns="http://www.w3.org/2000/svg">
<path d="M20.882 41.7641C32.4149 41.7641 41.7641 32.4149 41.7641 20.882C41.7641 9.34921 32.4149 0 20.882 0C9.34921 0 0 9.34921 0 20.882C0 32.4149 9.34921 41.7641 20.882 41.7641Z" fill="#1866ED"/>
<path d="M6.11578 35.6446C-2.03577 27.4931 17.4163 33.7235 25.5678 25.5672C33.7194 17.4108 27.4937 -2.03641 35.6453 6.11514C43.7969 14.2667 43.8017 27.4883 35.6453 35.6446C27.4889 43.801 14.2721 43.801 6.11578 35.6446Z" fill="white" fill-opacity="0.4"/>
<path d="M22.9673 25.8455L19.9147 28.8982C18.0128 30.8 18.0128 33.9104 19.9147 35.8123L26.4244 29.3026L31.5233 24.2037C33.9356 21.7914 33.9356 17.8577 31.5233 15.4454C29.1111 13.0332 25.1773 13.0332 22.7651 15.4454L18.2921 19.9184L17.0643 21.1462L18.3114 22.3933L12.3891 23.9774L13.9732 18.0551L15.2202 19.3021L21.8407 12.6817C23.7425 10.7798 23.7425 7.66945 21.8407 5.76758L10.232 17.3714C7.81979 19.7836 7.81979 23.7174 10.232 26.1296C12.6443 28.5419 16.578 28.5419 18.9903 26.1296C20.8873 24.2326 22.7892 22.3307 24.6862 20.4336L23.4392 19.1866L29.3615 17.6025L27.7774 23.5248L26.5303 22.2777L22.9673 25.8455Z" fill="white"/>
<path fill-rule="evenodd" clip-rule="evenodd" d="M28.4235 21.1455C29.3045 19.0022 29.7874 16.6469 30.1024 14.3909C30.6156 14.6684 31.0973 15.0235 31.5301 15.4563C33.9424 17.8685 33.9424 21.8023 31.5301 24.2145L26.4312 29.3135L19.9215 35.8231C18.0197 33.9213 18.0197 30.8109 19.9215 28.909L19.9608 28.8697C22.0624 28.1613 24.0229 27.1301 25.5741 25.578C26.2959 24.8558 26.905 24.045 27.4213 23.1728L27.7842 23.5356L28.4235 21.1455Z" fill="#1866ED" fill-opacity="0.1"/>
<path fill-rule="evenodd" clip-rule="evenodd" d="M36.3791 26.9619C36.3791 25.8784 35.5008 25 34.4172 25C33.3337 25 32.4554 25.8784 32.4554 26.9619V32.5532H26.9619C25.8784 32.5532 25 33.4316 25 34.5151C25 35.5986 25.8784 36.477 26.9619 36.477H32.4554V42.0683C32.4554 43.1519 33.3337 44.0302 34.4172 44.0302C35.5008 44.0302 36.3791 43.1519 36.3791 42.0683V36.477H42.0683C43.1519 36.477 44.0302 35.5986 44.0302 34.5151C44.0302 33.4316 43.1519 32.5532 42.0683 32.5532H36.3791V26.9619Z" fill="#2DEBC9"/>
</svg>
