<svg width="21" height="24" viewBox="0 0 21 24" fill="none" xmlns="http://www.w3.org/2000/svg">
<path d="M19.0114 16.0252L20.3089 16.8485C20.389 16.8992 20.4552 16.971 20.5012 17.0568C20.5472 17.1427 20.5714 17.2397 20.5714 17.3384C20.5714 17.4371 20.5472 17.5341 20.5012 17.6199C20.4552 17.7058 20.389 17.7776 20.3089 17.8283L10.8417 23.8369C10.6738 23.9436 10.4816 24 10.2857 24C10.0898 24 9.89767 23.9436 9.72977 23.8369L0.262509 17.8283C0.182459 17.7776 0.116199 17.7058 0.0701911 17.6199C0.0241834 17.5341 0 17.4371 0 17.3384C0 17.2397 0.0241834 17.1427 0.0701911 17.0568C0.116199 16.971 0.182459 16.8992 0.262509 16.8485L1.56007 16.0252L10.2857 21.5634L19.0114 16.0252ZM19.0114 10.6583L20.3089 11.4816C20.389 11.5323 20.4552 11.604 20.5012 11.6899C20.5472 11.7758 20.5714 11.8728 20.5714 11.9715C20.5714 12.0701 20.5472 12.1671 20.5012 12.253C20.4552 12.3389 20.389 12.4106 20.3089 12.4613L10.2857 18.8228L0.262509 12.4613C0.182459 12.4106 0.116199 12.3389 0.0701911 12.253C0.0241834 12.1671 0 12.0701 0 11.9715C0 11.8728 0.0241834 11.7758 0.0701911 11.6899C0.116199 11.604 0.182459 11.5323 0.262509 11.4816L1.56007 10.6583L10.2857 16.1965L19.0114 10.6583ZM10.8406 0.163074L20.3089 6.17175C20.389 6.22244 20.4552 6.29421 20.5012 6.38007C20.5472 6.46593 20.5714 6.56293 20.5714 6.66162C20.5714 6.76031 20.5472 6.85732 20.5012 6.94317C20.4552 7.02903 20.389 7.1008 20.3089 7.1515L10.2857 13.513L0.262509 7.1515C0.182459 7.1008 0.116199 7.02903 0.0701911 6.94317C0.0241834 6.85732 0 6.76031 0 6.66162C0 6.56293 0.0241834 6.46593 0.0701911 6.38007C0.116199 6.29421 0.182459 6.22244 0.262509 6.17175L9.72977 0.163074C9.89767 0.0563714 10.0898 0 10.2857 0C10.4816 0 10.6738 0.0563714 10.8417 0.163074H10.8406ZM10.2857 2.47314L3.6867 6.66162L10.2857 10.8501L16.8847 6.66162L10.2857 2.47314Z" fill="#1866ED"/>
</svg>
