<svg width="40" height="40" viewBox="0 0 40 40" fill="none" xmlns="http://www.w3.org/2000/svg">
<path d="M29.3026 35.3674L16.652 25.4505L12.0527 23.1768L4.30438 20.5034C4.30438 20.5034 3.11399 20.0713 3.00577 19.1396C2.89755 18.2078 4.34767 17.6859 4.34767 17.6859L35.1355 5.32947C35.1355 5.32947 37.6678 4.22015 37.6678 6.07256" stroke="#1C1C8E" stroke-width="2.21846" stroke-miterlimit="10"/>
<path d="M37.667 6.02539L32.1803 34.2999C32.0704 34.5726 31.9052 34.8178 31.6957 35.0202C31.4862 35.2226 31.2372 35.3776 30.9651 35.4741C30.693 35.5705 30.4041 35.6068 30.1173 35.5802C29.8306 35.5537 29.5526 35.4651 29.3018 35.3203" stroke="#1C1C8E" stroke-width="2.21846" stroke-miterlimit="10"/>
<path d="M15.678 34.0331C15.678 34.0331 15.3101 34.0332 14.8447 32.5025C14.3794 30.9718 12.0527 23.1737 12.0527 23.1737L30.6445 11.0946C30.6445 11.0946 31.7266 10.4291 31.7266 11.0946C31.7266 11.0946 31.9214 11.2051 31.3371 11.7597C30.7527 12.3143 16.7385 25.2145 16.7385 25.2145" stroke="#1C1C8E" stroke-width="2.21846" stroke-miterlimit="10"/>
<path d="M21.4998 29.2536L16.5002 33.9234C16.3823 34.0092 16.2457 34.0633 16.1024 34.0826C15.9591 34.102 15.8133 34.0855 15.6777 34.0339L16.6409 25.3594" stroke="#1C1C8E" stroke-width="2.21846" stroke-miterlimit="10"/>
</svg>
