<svg width="40" height="40" viewBox="0 0 40 40" fill="none" xmlns="http://www.w3.org/2000/svg">
<path d="M26.1898 8C27.0086 8.00017 27.8187 8.16794 28.5703 8.49298C29.3218 8.81802 29.9989 9.29345 30.5598 9.89C31.8996 9.62087 33.1844 9.12726 34.3598 8.43C33.9137 9.81587 32.979 10.9923 31.7298 11.74C32.9142 11.6027 34.0708 11.2857 35.1598 10.8C34.3519 12.0033 33.336 13.0531 32.1598 13.9C32.1598 14.16 32.1598 14.41 32.1598 14.67C32.1598 22.58 26.1598 31.67 15.1598 31.67C11.9142 31.6727 8.73562 30.7462 5.99977 29C6.4712 29.0549 6.94518 29.0849 7.41977 29.09C10.1113 29.0897 12.7246 28.1846 14.8398 26.52C13.5909 26.4947 12.3811 26.0804 11.379 25.3346C10.3769 24.5889 9.63257 23.549 9.24977 22.36C9.62147 22.4366 10.0003 22.4735 10.3798 22.47C10.9264 22.4774 11.4714 22.4102 11.9998 22.27C10.6479 21.9941 9.43242 21.2606 8.55811 20.1932C7.68381 19.1258 7.20409 17.7897 7.19977 16.41V16.33C8.03094 16.7911 8.95978 17.0482 9.90977 17.08C8.63491 16.2409 7.72773 14.9475 7.37289 13.4631C7.01805 11.9788 7.24222 10.4149 7.99977 9.09C9.50593 10.9409 11.3849 12.454 13.5144 13.5308C15.6439 14.6076 17.9763 15.2241 20.3598 15.34C20.1587 14.4625 20.1577 13.551 20.3568 12.673C20.5559 11.7951 20.95 10.9732 21.5099 10.2682C22.0698 9.56328 22.7812 8.99337 23.5913 8.60072C24.4014 8.20808 25.2895 8.00277 26.1898 8ZM26.1898 6C24.2318 6.00386 22.3432 6.72563 20.8817 8.02861C19.4203 9.33159 18.4874 11.1253 18.2598 13.07C14.8459 12.3838 11.7772 10.5312 9.57977 7.83C9.38942 7.59531 9.14837 7.4068 8.87471 7.27863C8.60106 7.15046 8.30192 7.08597 7.99977 7.09H7.86977C7.54661 7.11692 7.23485 7.22201 6.96134 7.39622C6.68783 7.57043 6.46079 7.80853 6.29977 8.09C5.70482 9.11716 5.34591 10.2638 5.24905 11.4469C5.15219 12.63 5.31981 13.8198 5.73977 14.93C5.37394 15.3041 5.16931 15.8067 5.16977 16.33V16.41C5.17422 18.4345 5.9461 20.3821 7.32977 21.86C7.22497 22.2294 7.22497 22.6206 7.32977 22.99C7.82793 24.4855 8.7568 25.8006 9.99977 26.77C9.17683 26.9847 8.33025 27.0956 7.47977 27.1C7.06495 27.0887 6.65104 27.0553 6.23977 27H5.99977C5.56556 26.9977 5.1424 27.1368 4.79422 27.3963C4.44604 27.6557 4.19175 28.0214 4.06978 28.4382C3.94781 28.8549 3.96478 29.3 4.11812 29.7063C4.27146 30.1125 4.55285 30.4578 4.91977 30.69C7.93641 32.63 11.4432 33.6706 15.0298 33.69H15.1698C17.6569 33.7098 20.1234 33.2372 22.4271 32.2994C24.7308 31.3615 26.8261 29.9771 28.5923 28.2258C30.3584 26.4745 31.7605 24.391 32.7178 22.0953C33.6751 19.7997 34.1685 17.3372 34.1698 14.85C35.1792 13.9936 36.0644 13.0007 36.7998 11.9C37.0398 11.5389 37.1559 11.1095 37.1306 10.6766C37.1054 10.2437 36.9401 9.83079 36.6598 9.5C36.5317 9.34668 36.3797 9.21499 36.2098 9.11C36.3181 8.81041 36.3533 8.48928 36.3125 8.17333C36.2716 7.85738 36.1559 7.55576 35.9749 7.29358C35.794 7.0314 35.553 6.81625 35.272 6.66604C34.9911 6.51583 34.6783 6.4349 34.3598 6.43H34.2898C33.9361 6.44202 33.5916 6.54537 33.2898 6.73C32.6005 7.15291 31.8616 7.4888 31.0898 7.73C29.6926 6.62752 27.9694 6.01914 26.1898 6V6Z" fill="#1C1C8E"/>
</svg>
