<svg width="44" height="44" viewBox="0 0 44 44" fill="none" xmlns="http://www.w3.org/2000/svg">
<g clip-path="url(#clip0)">
<path d="M24.2531 38.1284H37.0654C33.5528 41.4478 29.0499 43.5116 24.2531 44.0005V38.1284ZM6.93305 38.1284H19.7478V44.0005C14.9499 43.5128 10.4459 41.4489 6.93305 38.1284ZM24.2531 33.6112V28.3604H43.0874C42.5379 30.2072 41.7477 31.9728 40.7372 33.6112H24.2531ZM3.25813 33.6112C2.25142 31.9717 1.46365 30.2064 0.915039 28.3604H19.7493V33.6112H3.25813Z" fill="white" fill-opacity="0.5"/>
<path d="M24.2523 23.842V20.5248L37.9123 6.82483C41.8243 10.9198 44.0062 16.3785 44 22.0555C44 22.6539 43.9734 23.2508 43.9264 23.8397L24.2523 23.842ZM0.0720217 23.842C0.0250183 23.2531 1.32316e-05 22.657 1.32316e-05 22.0578C-0.00619813 16.3813 2.17468 10.9228 6.08535 6.82714L19.7478 20.5273V23.8444L0.0720217 23.842ZM9.52522 3.88877C13.1937 1.34864 17.5452 -0.00781247 22 3.38484e-05C26.4547 -0.00721336 30.8059 1.34919 34.4747 3.88877L22 16.3952L9.52522 3.88877Z" fill="white"/>
</g>
<defs>
<clipPath id="clip0">
<rect width="44" height="44" fill="white"/>
</clipPath>
</defs>
</svg>
