<svg width="40" height="40" viewBox="0 0 40 40" fill="none" xmlns="http://www.w3.org/2000/svg">
<path d="M37.8333 16.5908V22.397C37.8333 22.6061 37.7763 22.806 37.7763 23.015C37.7533 24.5892 37.5815 26.1575 37.2632 27.6993C37.1441 28.5444 36.7828 29.337 36.2229 29.9812C35.6631 30.6253 34.9287 31.0937 34.1085 31.3295C33.2639 31.5499 32.3965 31.6709 31.5239 31.6904C28.8442 31.814 26.1646 31.9656 23.4849 31.9846C17.9576 32.1336 12.4263 31.9975 6.91306 31.5763C5.87818 31.5351 4.88816 31.1424 4.10583 30.4637C3.3235 29.785 2.79545 28.8609 2.60855 27.8422C2.33518 26.4724 2.16053 25.0845 2.08594 23.6896C1.99092 21.6657 1.99093 19.632 2.00993 17.5986C1.98645 15.5112 2.16784 13.4267 2.55154 11.3748C2.71126 10.3386 3.22235 9.38879 3.99914 8.68466C4.77593 7.98053 5.77121 7.5646 6.81806 7.50709C8.97507 7.33605 11.1416 7.13658 13.3081 7.10807C19.8604 6.88305 26.42 7.00937 32.9587 7.4876C33.9222 7.51998 34.8492 7.86531 35.5999 8.4703C36.3506 9.0753 36.8843 9.90745 37.1207 10.8422C37.389 11.9996 37.5763 13.1746 37.6813 14.3582C37.7763 15.1088 37.7858 15.8496 37.8333 16.5908Z" stroke="#1C1C8E" stroke-width="1.90045" stroke-miterlimit="10"/>
<path d="M15.3135 25.0873L26.7162 19.1864L15.3135 13.2568V25.0873Z" fill="#5B46F9"/>
<path d="M37.8333 16.5908V22.397C37.8333 22.6061 37.7763 22.806 37.7763 23.015C37.7533 24.5892 37.5815 26.1575 37.2632 27.6993C37.1441 28.5444 36.7828 29.337 36.2229 29.9812C35.6631 30.6253 34.9287 31.0937 34.1085 31.3295C33.2639 31.5499 32.3965 31.6709 31.5239 31.6904C28.8442 31.814 26.1646 31.9656 23.4849 31.9846C17.9576 32.1336 12.4263 31.9975 6.91306 31.5763C5.87818 31.5351 4.88816 31.1424 4.10583 30.4637C3.3235 29.785 2.79545 28.8609 2.60855 27.8422C2.33518 26.4724 2.16053 25.0845 2.08594 23.6896C1.99092 21.6657 1.99093 19.632 2.00993 17.5986C1.98645 15.5112 2.16784 13.4267 2.55154 11.3748C2.71126 10.3386 3.22235 9.38879 3.99914 8.68466C4.77593 7.98053 5.77121 7.5646 6.81806 7.50709C8.97507 7.33605 11.1416 7.13658 13.3081 7.10807C19.8604 6.88305 26.42 7.00937 32.9587 7.4876C33.9222 7.51998 34.8492 7.86531 35.5999 8.4703C36.3506 9.0753 36.8843 9.90745 37.1207 10.8422C37.389 11.9996 37.5763 13.1746 37.6813 14.3582C37.7763 15.1088 37.7858 15.8496 37.8333 16.5908Z" stroke="#1C1C8E" stroke-width="1.90045" stroke-miterlimit="10"/>
<path d="M15.3135 25.0873L26.7162 19.1864L15.3135 13.2568V25.0873Z" fill="#5B46F9"/>
</svg>
